<svg width="18" height="18" viewBox="0 0 18 18" fill="none" xmlns="http://www.w3.org/2000/svg">
<path d="M14.3551 9.70199C14.3821 9.47699 14.4001 9.24299 14.4001 8.99999C14.4001 8.75699 14.3821 8.52299 14.3461 8.29799L15.8671 7.10999C16.0021 7.00199 16.0381 6.80399 15.9571 6.65099L14.5171 4.15799C14.4271 3.99599 14.2381 3.94199 14.0761 3.99599L12.2851 4.71599C11.9071 4.42799 11.5111 4.19399 11.0701 4.01399L10.8001 2.10599C10.7731 1.92599 10.6201 1.79999 10.4401 1.79999H7.56008C7.38008 1.79999 7.23608 1.92599 7.20908 2.10599L6.93908 4.01399C6.49808 4.19399 6.09308 4.43699 5.72408 4.71599L3.93308 3.99599C3.77108 3.93299 3.58208 3.99599 3.49208 4.15799L2.05208 6.65099C1.96208 6.81299 1.99808 7.00199 2.14208 7.10999L3.66308 8.29799C3.62708 8.52299 3.60008 8.76599 3.60008 8.99999C3.60008 9.23399 3.61808 9.47699 3.65408 9.70199L2.13308 10.89C1.99808 10.998 1.96208 11.196 2.04308 11.349L3.48308 13.842C3.57308 14.004 3.76208 14.058 3.92408 14.004L5.71508 13.284C6.09308 13.572 6.48908 13.806 6.93008 13.986L7.20008 15.894C7.23608 16.074 7.38008 16.2 7.56008 16.2H10.4401C10.6201 16.2 10.7731 16.074 10.7911 15.894L11.0611 13.986C11.5021 13.806 11.9071 13.563 12.2761 13.284L14.0671 14.004C14.2291 14.067 14.4181 14.004 14.5081 13.842L15.9481 11.349C16.0381 11.187 16.0021 10.998 15.8581 10.89L14.3551 9.70199ZM9.00008 11.7C7.51508 11.7 6.30008 10.485 6.30008 8.99999C6.30008 7.51499 7.51508 6.29999 9.00008 6.29999C10.4851 6.29999 11.7001 7.51499 11.7001 8.99999C11.7001 10.485 10.4851 11.7 9.00008 11.7Z" fill="white"/>
</svg>
