<svg xmlns="http://www.w3.org/2000/svg" viewBox="0 0 120 120">
  <defs>
    <style>
      .cls-1 {
        fill: none;
      }

      .cls-2 {
        fill: #0b799d;
      }

      .cls-3 {
        fill: #efe2dd;
      }

      .cls-4 {
        fill: #fff5f5;
      }

      .cls-5 {
        fill: #87a0af;
      }

      .cls-6 {
        fill: #b4d2d7;
      }
    </style>
  </defs>
  <title>Asset 9</title>
  <g id="Layer_2" data-name="Layer 2">
    <g id="Layer_1-2" data-name="Layer 1">
      <rect class="cls-1" width="120" height="120"/>
      <g>
        <path class="cls-2" d="M63.08,77.48V56.89H56.92V77.48H14.6v26.75h6.15V83.64H56.92v20.59h6.16V83.64H99.25v20.59h6.15V77.48Z"/>
        <path class="cls-3" d="M93,35.35A17.45,17.45,0,0,0,67.35,20.69,22.82,22.82,0,0,0,60,11.79L56.27,40.9,60,65.16H92.86A14.91,14.91,0,0,0,93,35.35Z"/>
        <path class="cls-4" d="M46.72,7.5A22.72,22.72,0,0,0,24,30.22a22.37,22.37,0,0,0,.64,5.34,14.91,14.91,0,0,0,2.5,29.6H60V11.79A22.6,22.6,0,0,0,46.72,7.5Z"/>
        <path class="cls-5" d="M60,92.15l-4.1,10.18L60,112.5a10.18,10.18,0,0,0,0-20.35Z"/>
        <path class="cls-6" d="M49.83,102.33A10.18,10.18,0,0,0,60,112.5V92.15A10.19,10.19,0,0,0,49.83,102.33Z"/>
        <path class="cls-5" d="M102.33,92.15a10.18,10.18,0,1,0,10.17,10.18A10.2,10.2,0,0,0,102.33,92.15Z"/>
        <path class="cls-6" d="M17.67,92.15a10.18,10.18,0,1,0,10.18,10.18A10.19,10.19,0,0,0,17.67,92.15Z"/>
      </g>
    </g>
  </g>
</svg>
