<svg xmlns="http://www.w3.org/2000/svg" viewBox="0 0 120 120">
  <defs>
    <style>
      .cls-1 {
        fill: #9ee2f8;
      }

      .cls-2 {
        fill: #78b9eb;
      }

      .cls-3 {
        fill: #005fe1;
      }

      .cls-4 {
        fill: #212cbb;
      }

      .cls-5 {
        fill: #218adc;
      }

      .cls-6 {
        fill: none;
      }
    </style>
  </defs>
  <title>Asset 7</title>
  <g id="Layer_2" data-name="Layer 2">
    <g id="Layer_1-2" data-name="Layer 1">
      <g>
        <path class="cls-1" d="M60,112.5A52.36,52.36,0,0,1,20.86,94.94l20.94-11Z"/>
        <path class="cls-2" d="M37.09,55.9,37.69,88a71.73,71.73,0,0,0-16.83,6.91A52.21,52.21,0,0,1,7.5,60Z"/>
        <path class="cls-1" d="M33,60H7.5A52.26,52.26,0,0,1,20.86,25.05l23,2.82Z"/>
        <path class="cls-2" d="M37.69,32a71.73,71.73,0,0,1-16.83-6.91A52.36,52.36,0,0,1,60,7.5Z"/>
        <path class="cls-3" d="M60,112.5A52.36,52.36,0,0,0,99.14,94.94l-20.94-11Z"/>
        <path class="cls-4" d="M82.91,55.9,82.31,88a71.73,71.73,0,0,1,16.83,6.91A52.21,52.21,0,0,0,112.5,60Z"/>
        <path class="cls-3" d="M87,60H112.5A52.26,52.26,0,0,0,99.14,25.05l-23,2.82Z"/>
        <path class="cls-4" d="M82.31,32a71.73,71.73,0,0,0,16.83-6.91A52.36,52.36,0,0,0,60,7.5Z"/>
        <path class="cls-5" d="M82.31,88,55.9,81,60,112.5h0C68.22,112.5,77.06,102.72,82.31,88Z"/>
        <path class="cls-3" d="M60,85.05h0a84.54,84.54,0,0,1,22.31,3A84,84,0,0,0,87,60L55.9,55.9Z"/>
        <path class="cls-5" d="M55.9,30.84,60,60H87a84,84,0,0,0-4.7-28Z"/>
        <path class="cls-3" d="M82.31,32C77.06,17.28,68.21,7.5,60,7.5L55.9,21.22,60,35A84.54,84.54,0,0,0,82.31,32Z"/>
        <path class="cls-2" d="M37.69,88C42.94,102.72,51.78,112.5,60,112.5h0V85.05A84.54,84.54,0,0,0,37.69,88Z"/>
        <path class="cls-5" d="M33,60a84,84,0,0,0,4.7,28,84.54,84.54,0,0,1,22.31-3V60Z"/>
        <path class="cls-5" d="M37.69,32A84.54,84.54,0,0,0,60,35V7.5C51.78,7.5,42.94,17.28,37.69,32Z"/>
        <path class="cls-2" d="M60,35a84.54,84.54,0,0,1-22.31-3A84,84,0,0,0,33,60H60Z"/>
      </g>
      <rect class="cls-6" width="120" height="120"/>
    </g>
  </g>
</svg>
