<svg xmlns="http://www.w3.org/2000/svg" viewBox="0 0 232 38.67"><defs><style>.cls-1{fill:#fff;}</style></defs><title>Risorsa 1</title><g id="Livello_2" data-name="Livello 2"><g id="Livello_1-2" data-name="Livello 1"><rect class="cls-1" x="29" width="9.67" height="9.67"/><rect class="cls-1" x="29" y="9.67" width="9.67" height="9.67"/><rect class="cls-1" x="19.33" y="9.67" width="9.67" height="9.67"/><rect class="cls-1" x="9.67" y="19.33" width="9.67" height="9.67"/><rect class="cls-1" y="29" width="9.67" height="9.67"/><rect class="cls-1" x="19.33" y="29" width="9.67" height="9.67"/><rect class="cls-1" x="29" y="19.33" width="9.67" height="9.67"/><rect class="cls-1" x="29" y="29" width="9.67" height="9.67"/><g id="R"><rect class="cls-1" x="67.67" width="9.67" height="9.67"/><rect class="cls-1" x="58" width="9.67" height="9.67"/><rect class="cls-1" x="48.33" y="9.67" width="9.67" height="9.67"/><rect class="cls-1" x="77.33" y="9.67" width="9.67" height="9.67"/><rect class="cls-1" x="48.33" y="19.33" width="9.67" height="9.67"/><rect class="cls-1" x="67.67" y="19.33" width="9.67" height="9.67"/><rect class="cls-1" x="58" y="19.33" width="9.67" height="9.67"/><rect class="cls-1" x="48.33" y="29" width="9.67" height="9.67"/><rect class="cls-1" x="77.33" y="29" width="9.67" height="9.67"/></g><rect class="cls-1" x="96.67" y="9.67" width="9.67" height="9.67"/><rect class="cls-1" x="116" y="9.67" width="9.67" height="9.67"/><rect class="cls-1" x="125.67" y="9.67" width="9.67" height="9.67"/><rect class="cls-1" x="106.33" width="9.67" height="9.67"/><rect class="cls-1" x="106.33" y="9.67" width="9.67" height="9.67"/><rect class="cls-1" x="125.67" y="29" width="9.67" height="9.67"/><rect class="cls-1" x="116" y="29" width="9.67" height="9.67"/><rect class="cls-1" x="106.33" y="19.33" width="9.67" height="9.67"/><rect class="cls-1" x="106.33" y="29" width="9.67" height="9.67"/><rect class="cls-1" x="145" y="9.67" width="9.67" height="9.67"/><rect class="cls-1" x="154.67" width="9.67" height="9.67"/><rect class="cls-1" x="164.33" width="9.67" height="9.67"/><rect class="cls-1" x="174" width="9.67" height="9.67"/><rect class="cls-1" x="174" y="29" width="9.67" height="9.67"/><rect class="cls-1" x="164.33" y="29" width="9.67" height="9.67"/><rect class="cls-1" x="154.67" y="29" width="9.67" height="9.67"/><rect class="cls-1" x="154.67" y="14.5" width="9.67" height="9.67"/><rect class="cls-1" x="164.33" y="14.5" width="9.67" height="9.67"/><rect class="cls-1" x="145" y="19.33" width="9.67" height="9.67"/><rect class="cls-1" x="193.33" width="9.67" height="9.67"/><rect class="cls-1" x="193.33" y="9.67" width="9.67" height="9.67"/><rect class="cls-1" x="212.67" y="29" width="9.67" height="9.67"/><rect class="cls-1" x="222.33" y="29" width="9.67" height="9.67"/><rect class="cls-1" x="203" y="29" width="9.67" height="9.67"/><rect class="cls-1" x="193.33" y="19.33" width="9.67" height="9.67"/><path class="cls-1" d="M229.19,5.74a2.88,2.88,0,0,1-1.1-.22,2.63,2.63,0,0,1-.9-.6,2.88,2.88,0,0,1-.6-.91,3,3,0,0,1-.21-1.14,3,3,0,0,1,.21-1.14,2.93,2.93,0,0,1,.6-.92,2.76,2.76,0,0,1,.9-.59,2.7,2.7,0,0,1,1.1-.22,2.74,2.74,0,0,1,1.1.22,2.87,2.87,0,0,1,.9.59,2.74,2.74,0,0,1,.59.92A2.86,2.86,0,0,1,232,2.87,2.86,2.86,0,0,1,231.78,4a2.7,2.7,0,0,1-.59.91,2.73,2.73,0,0,1-.9.6A2.92,2.92,0,0,1,229.19,5.74Zm0-.66A2.3,2.3,0,0,0,230,5a2,2,0,0,0,.66-.39,1.93,1.93,0,0,0,.44-.63,2,2,0,0,0,.17-.84V2.64a2.07,2.07,0,0,0-.17-.84,2,2,0,0,0-.44-.62A1.7,1.7,0,0,0,230,.79a2.3,2.3,0,0,0-.79-.14,2.4,2.4,0,0,0-.8.14,1.66,1.66,0,0,0-.65.39,1.84,1.84,0,0,0-.44.62,1.91,1.91,0,0,0-.17.84v.45a1.86,1.86,0,0,0,.17.84,1.79,1.79,0,0,0,.44.63,1.94,1.94,0,0,0,.65.39A2.4,2.4,0,0,0,229.19,5.08Zm-.32-.76H228V1.41h1.42a1.16,1.16,0,0,1,.85.27,1,1,0,0,1,.26.69,1.16,1.16,0,0,1-.14.58.93.93,0,0,1-.37.34l.59,1h-1l-.44-.87h-.32Zm.35-1.52c.26,0,.39-.11.39-.32v-.1c0-.21-.13-.32-.39-.32h-.35V2.8Z"/></g></g></svg>