<svg width="188" height="191" viewBox="0 0 188 191" fill="none" xmlns="http://www.w3.org/2000/svg">
<path d="M188 95.5477C188.023 108.867 185.304 122.02 179.983 134.196C179.819 134.601 179.631 134.982 179.467 135.363C179.373 135.554 179.28 135.744 179.209 135.959C179.116 136.149 179.022 136.34 178.928 136.531C178.811 136.769 178.694 137.031 178.576 137.269C178.436 137.579 178.272 137.889 178.131 138.199C178.108 138.246 178.084 138.294 178.061 138.318C177.92 138.58 177.803 138.842 177.662 139.104C177.639 139.152 177.615 139.223 177.568 139.271C177.404 139.581 177.264 139.89 177.1 140.176C176.936 140.51 176.771 140.82 176.584 141.129C176.162 141.916 175.717 142.702 175.295 143.488C175.154 143.727 175.037 143.941 174.896 144.179C174.779 144.394 174.638 144.608 174.521 144.823C174.427 144.966 174.357 145.109 174.263 145.251C174.123 145.49 173.982 145.728 173.841 145.966C173.513 146.491 173.185 147.015 172.857 147.539C172.693 147.777 172.552 148.015 172.388 148.254C171.919 148.969 171.45 149.683 170.958 150.374C170.583 150.946 170.184 151.494 169.786 152.042C169.528 152.4 169.27 152.757 169.012 153.091C168.801 153.377 168.59 153.663 168.356 153.948C168.309 154.02 168.262 154.068 168.215 154.139C168.145 154.211 168.098 154.306 168.028 154.377C167.09 155.569 166.152 156.76 165.168 157.904C165.121 157.975 165.051 158.023 165.004 158.094C164.957 158.166 164.887 158.214 164.84 158.285C164.769 158.38 164.676 158.476 164.582 158.571C164.512 158.666 164.418 158.762 164.324 158.857C159.214 164.718 153.4 169.937 147.024 174.369C146.18 174.964 145.313 175.536 144.446 176.108C144.235 176.251 144.024 176.394 143.789 176.537C143.719 176.584 143.649 176.632 143.602 176.656C143.485 176.727 143.367 176.799 143.25 176.87C143.133 176.942 143.016 177.013 142.899 177.085C142.43 177.371 141.961 177.657 141.492 177.943C141.375 178.014 141.258 178.086 141.141 178.157C141.023 178.229 140.906 178.3 140.789 178.372C140.789 178.372 140.789 178.372 140.765 178.372C140.179 178.729 139.593 179.063 138.984 179.396C137.906 179.992 136.827 180.564 135.726 181.112C135.444 181.255 135.186 181.398 134.905 181.517C134.671 181.636 134.436 181.731 134.225 181.85C134.155 181.874 134.108 181.922 134.038 181.946C133.85 182.041 133.663 182.136 133.475 182.208C133.264 182.303 133.053 182.398 132.842 182.494C132.608 182.613 132.373 182.708 132.139 182.803C131.272 183.208 130.381 183.59 129.49 183.947C126.326 185.258 123.114 186.401 119.832 187.354C119.668 187.402 119.528 187.45 119.363 187.497C117.957 187.902 116.551 188.26 115.121 188.593C112.636 189.165 110.128 189.642 107.596 190.023H107.572C107.268 190.071 106.963 190.118 106.658 190.142C106.635 190.142 106.611 190.142 106.588 190.142C106.26 190.19 105.908 190.238 105.58 190.285C105.557 190.285 105.533 190.285 105.51 190.285C105.205 190.333 104.877 190.357 104.572 190.404C104.22 190.452 103.892 190.476 103.541 190.523C103.283 190.547 103.025 190.571 102.767 190.595C102.744 190.595 102.72 190.595 102.697 190.595C102.462 190.619 102.228 190.643 101.993 190.666H101.97C101.759 190.69 101.548 190.69 101.361 190.714C98.9226 190.905 96.4847 191 94.0234 191C91.3276 191 88.6787 190.881 86.0533 190.666H86.0299C85.4673 190.619 84.9047 190.571 84.3421 190.5C84.2014 190.476 84.0373 190.476 83.8967 190.452C83.8732 190.452 83.8498 190.452 83.8029 190.452C83.756 190.452 83.7092 190.452 83.6623 190.428C83.6388 190.428 83.6154 190.428 83.5919 190.428C83.4044 190.404 83.1935 190.38 83.0059 190.357C82.7949 190.333 82.5605 190.309 82.3496 190.285C82.1386 190.261 81.9042 190.238 81.6932 190.19C81.6463 190.19 81.5994 190.19 81.5526 190.166C81.3885 190.142 81.2244 190.118 81.0837 190.095C81.0134 190.095 80.9196 190.071 80.8493 190.071C80.6852 190.047 80.5446 190.023 80.4039 189.999C80.4039 189.999 80.4039 189.999 80.3805 189.999C75.5984 189.308 70.8633 188.212 66.2453 186.759C65.9875 186.687 65.7531 186.592 65.4952 186.52C65.4249 186.497 65.3546 186.473 65.2608 186.449C64.6044 186.235 63.9715 186.02 63.3152 185.782C62.4244 185.472 61.5336 185.138 60.6663 184.805C60.4319 184.71 60.1975 184.614 59.963 184.519C59.4942 184.328 59.0254 184.138 58.5331 183.947C57.7361 183.614 56.9391 183.28 56.1421 182.923C55.392 182.589 54.6653 182.255 53.9386 181.898C53.9152 181.898 53.8917 181.874 53.8683 181.874C53.7042 181.803 53.5401 181.707 53.376 181.636C49.3441 179.682 45.4763 177.418 41.7725 174.893C40.577 174.083 39.405 173.249 38.2563 172.391C37.3421 171.7 36.4279 170.985 35.5137 170.246C31.0364 166.625 26.8873 162.598 23.1366 158.214C22.8788 157.904 22.6209 157.594 22.3396 157.284C22.2928 157.237 22.2693 157.189 22.2224 157.165C22.0583 156.975 21.8942 156.76 21.7302 156.569C21.5192 156.307 21.2848 156.045 21.0738 155.783C21.0269 155.736 20.98 155.664 20.9332 155.616C20.7691 155.402 20.5815 155.188 20.4174 154.973C20.3237 154.854 20.2533 154.759 20.1596 154.639C19.6439 153.972 19.1516 153.329 18.6593 152.662C18.5187 152.471 18.4015 152.304 18.2608 152.114C17.6279 151.256 17.0184 150.374 16.4324 149.493C16.198 149.159 15.987 148.826 15.7526 148.492C15.5416 148.158 15.3072 147.825 15.0962 147.491C14.8853 147.134 14.6509 146.8 14.4399 146.443C14.4399 146.419 14.4164 146.395 14.4164 146.395C14.2055 146.038 13.9945 145.704 13.7835 145.347C13.6194 145.061 13.4553 144.799 13.2913 144.513C13.1741 144.322 13.0568 144.132 12.9631 143.941C12.9162 143.87 12.8928 143.822 12.8459 143.75C12.588 143.321 12.3536 142.893 12.1192 142.464C11.8379 141.963 11.5566 141.439 11.2753 140.915C11.1581 140.7 11.0409 140.486 10.9471 140.272C10.9002 140.2 10.8768 140.129 10.8299 140.057C10.6893 139.795 10.5721 139.557 10.4314 139.295C10.3142 139.033 10.1736 138.794 10.0564 138.532C9.93914 138.27 9.7985 138.032 9.68129 137.77C9.58752 137.579 9.49376 137.388 9.39999 137.198C9.39999 137.174 9.37655 137.174 9.37655 137.15C9.32967 137.055 9.28279 136.96 9.25934 136.888C9.25934 136.864 9.2359 136.864 9.2359 136.84C9.14214 136.65 9.04837 136.435 8.95461 136.245C8.8374 135.983 8.72019 135.721 8.60298 135.458C8.50922 135.268 8.4389 135.101 8.36857 134.91C8.25136 134.648 8.13416 134.386 8.01695 134.124C7.89974 133.862 7.78254 133.576 7.66533 133.314C7.64189 133.243 7.59501 133.171 7.57157 133.1C7.52468 132.98 7.45436 132.861 7.40747 132.718C7.26683 132.385 7.12618 132.051 7.00897 131.718C6.86832 131.336 6.70423 130.979 6.56359 130.598C6.42294 130.24 6.28229 129.907 6.16508 129.549L6.1182 129.43C4.0788 123.998 2.53167 118.374 1.52369 112.632C0.937655 109.368 0.51571 106.056 0.281296 102.744C0.257854 102.553 0.257855 102.386 0.234414 102.195C0.0703241 99.9557 0 97.6921 0 95.4523C0 94.4516 0.0234407 93.4509 0.046882 92.4501C0.656358 71.6727 7.94663 51.6815 20.7925 35.5027C21.3551 34.7879 21.9411 34.0969 22.5272 33.3821C39.7566 13.0097 65.378 0 93.9999 0C127.451 0 156.823 17.7752 173.49 44.5333C174.357 45.9153 175.177 47.3211 175.974 48.7746C183.898 63.0472 188.023 79.1544 188 95.5477Z" fill="#F2F2F2"/>
<path d="M5.11024 103.315C5.32121 100.194 4.38355 97.0726 2.43792 94.6422C2.25039 94.4039 2.62545 94.118 2.81298 94.3562C4.82894 96.9058 5.79004 100.146 5.55562 103.387C5.55562 103.673 5.0868 103.625 5.11024 103.315Z" fill="white"/>
<path d="M15.3775 61.7126C15.3775 61.9033 15.3541 62.0939 15.3541 62.3083C15.2838 64.9293 15.4244 67.5265 15.7761 70.1237C15.7995 70.3143 15.8229 70.5288 15.8464 70.7194C16.7371 76.9621 18.7765 82.9666 21.8239 88.4469C23.0429 90.6152 24.4259 92.712 25.9496 94.6659C28.0593 97.3822 30.5676 100.146 31.6459 103.339C31.7631 103.673 31.8568 104.006 31.9272 104.34L21.8708 118.994C21.8239 119.017 21.8005 119.041 21.7536 119.065L21.3785 119.661C21.2848 119.565 21.2145 119.47 21.1207 119.375C21.0738 119.327 21.0269 119.256 20.98 119.208C20.9566 119.16 20.9097 119.137 20.8863 119.089C20.8863 119.065 20.8628 119.065 20.8628 119.065C20.8394 119.041 20.8159 118.994 20.7691 118.97C20.2768 118.398 19.808 117.826 19.3157 117.254C15.6588 112.87 12.3302 108.152 9.7985 103.053C9.72818 102.91 9.63441 102.743 9.56409 102.577C8.4389 100.265 7.50124 97.8826 6.77456 95.4283C6.37606 94.0702 6.04788 92.712 5.76658 91.33C5.08678 87.7559 4.96957 84.1103 5.41496 80.4886C6.28229 73.2927 9.42344 66.4781 14.9556 62.0224C15.0963 61.9271 15.2369 61.8318 15.3775 61.7126Z" fill="#E6E6E6"/>
<path d="M15.5416 61.8796C12.002 70.1 11.0174 79.5356 12.9162 88.3041C13.3381 90.2103 13.9242 92.0926 14.8853 93.7605C15.8464 95.3808 17.2294 96.739 18.8703 97.6444C20.394 98.526 22.0349 99.2408 23.3242 100.48C24.6838 101.79 25.2932 103.577 25.2464 105.436C25.1995 107.723 24.3556 109.868 23.4414 111.941C22.4334 114.228 21.3551 116.587 21.4489 119.16C21.4489 119.47 20.98 119.47 20.98 119.16C20.8394 114.705 23.9805 111.083 24.6603 106.794C24.9651 104.793 24.7072 102.672 23.3007 101.147C22.0818 99.7889 20.3706 99.0502 18.8234 98.1924C17.206 97.2632 15.8229 96.1433 14.7915 94.5468C13.7366 92.9266 13.0803 91.0442 12.6115 89.1857C11.6035 84.9206 11.2519 80.5125 11.58 76.1283C11.9317 71.1246 13.1272 66.24 15.0962 61.6413C15.2369 61.3554 15.6588 61.5936 15.5416 61.8796Z" fill="white"/>
<path d="M12.1426 85.4687C9.02494 85.707 6.21197 83.634 5.46185 80.5603C5.39152 80.2505 5.86035 80.1314 5.93067 80.4411C6.61047 83.3243 9.25935 85.2543 12.1661 84.9922C12.4474 84.9683 12.4474 85.4449 12.1426 85.4687Z" fill="white"/>
<path d="M18.0499 97.2871C20.0893 94.9282 21.1676 91.8544 21.0738 88.733C21.0738 88.4233 21.5426 88.4233 21.5426 88.733C21.6364 91.9974 20.5112 95.1903 18.3781 97.6445C18.1905 97.8827 17.8389 97.5253 18.0499 97.2871Z" fill="white"/>
<path d="M12.5177 71.4107C13.7132 71.5775 14.9321 71.1009 15.7057 70.1717C15.8932 69.9334 16.2449 70.2908 16.0339 70.5052C15.1666 71.5298 13.8304 72.054 12.4942 71.8872C12.3536 71.8872 12.2598 71.7681 12.2598 71.649C12.2833 71.5298 12.377 71.4107 12.5177 71.4107Z" fill="white"/>
<path d="M107.244 62.6896C108.651 54.8266 106.33 45.9152 99.9775 41.2212C100.376 49.8943 97.7505 58.4245 92.57 65.3345C90.554 67.9793 88.0458 70.7194 88.1396 74.0791C88.2099 76.1521 89.3116 78.1059 90.7884 79.5356C92.2653 80.989 94.0702 82.0374 95.8518 83.062L96.1331 83.4909C101.314 77.4626 105.861 70.5527 107.244 62.6896Z" fill="#E6E6E6"/>
<path d="M99.8603 41.3405C102.556 47.345 103.306 54.0881 102.017 60.5454C101.759 61.9512 101.29 63.2855 100.634 64.5483C99.954 65.7397 98.946 66.7405 97.774 67.4076C96.6722 68.051 95.4767 68.599 94.5625 69.5044C93.6249 70.4575 93.1326 71.7919 93.2029 73.15C93.2498 74.8179 93.9062 76.3667 94.586 77.8678C95.3361 79.5357 96.1565 81.2275 96.1096 83.1098C96.1096 83.3481 96.4613 83.3243 96.4613 83.1098C96.5316 79.8455 94.1874 77.2483 93.6717 74.1508C93.4139 72.6973 93.6014 71.1485 94.6094 70.0286C95.4767 69.0279 96.7191 68.4799 97.8443 67.8365C99.0164 67.1932 100.024 66.2639 100.751 65.144C101.478 63.9288 101.993 62.5945 102.275 61.2125C102.978 58.0911 103.189 54.8744 102.908 51.7054C102.603 48.0598 101.689 44.5095 100.212 41.1975C100.071 40.9354 99.7899 41.1261 99.8603 41.3405Z" fill="white"/>
<path d="M102.556 58.496C104.83 58.639 106.869 57.0902 107.385 54.8505C107.432 54.636 107.104 54.5407 107.057 54.7552C106.588 56.852 104.689 58.2816 102.556 58.1386C102.322 58.1148 102.345 58.4722 102.556 58.496Z" fill="white"/>
<path d="M98.36 67.1455C96.8598 65.4299 96.0393 63.214 96.0862 60.9504C96.0862 60.7121 95.7346 60.736 95.7346 60.9504C95.7112 63.3331 96.5551 65.6444 98.1256 67.4076C98.2663 67.5744 98.5241 67.3123 98.36 67.1455Z" fill="white"/>
<path d="M102.158 48.2502C101.29 48.3694 100.399 48.0358 99.8134 47.3686C99.6727 47.2018 99.4149 47.4639 99.579 47.6307C100.235 48.3693 101.196 48.7268 102.158 48.6076C102.251 48.6076 102.322 48.5361 102.322 48.417C102.322 48.3217 102.251 48.2502 102.158 48.2502Z" fill="white"/>
<path d="M74.2154 47.8452C74.3092 47.9644 74.403 48.0597 74.4733 48.1788C75.6688 49.6561 76.7236 51.2287 77.6613 52.8728C77.7316 52.9919 77.802 53.1349 77.8723 53.254C80.0992 57.257 81.5526 61.6412 82.2089 66.1684C82.4668 67.9793 82.584 69.7902 82.5606 71.6249C82.5371 74.1506 82.3027 76.8669 83.0763 79.202C83.1466 79.4403 83.2404 79.6785 83.3576 79.9168L95.5705 83.8007C95.594 83.8007 95.6408 83.8007 95.6643 83.7769L96.1566 83.9436C96.1566 83.8483 96.18 83.753 96.18 83.6577C96.18 83.6101 96.18 83.5386 96.18 83.4909C96.18 83.4433 96.18 83.4194 96.18 83.3956C96.18 83.3718 96.18 83.3718 96.18 83.3718C96.18 83.348 96.18 83.3003 96.18 83.2765C96.2034 82.7284 96.2503 82.1804 96.2738 81.6324C96.4613 77.4626 96.2972 73.2213 95.5236 69.1469C95.5002 69.0277 95.4768 68.9086 95.4533 68.7656C95.1017 66.9309 94.586 65.12 93.9296 63.3806C93.578 62.4275 93.1561 61.4745 92.7107 60.569C91.5386 58.2101 89.9915 56.0418 88.163 54.1595C84.5062 50.4186 79.7007 47.8929 74.567 47.8452C74.4733 47.8452 74.3561 47.8452 74.2154 47.8452Z" fill="#E6E6E6"/>
<path d="M74.192 48.0119C79.9117 51.1809 84.4827 56.0894 87.2957 62.0462C87.9286 63.3091 88.3506 64.691 88.5615 66.0969C88.7256 67.4788 88.5147 68.8608 87.9755 70.1475C87.4832 71.3389 86.8503 72.5064 86.6628 73.7931C86.4753 75.1274 86.8738 76.4856 87.7411 77.534C88.7725 78.8445 90.2024 79.6784 91.6324 80.4647C93.2264 81.3225 94.8673 82.2041 95.9456 83.7053C96.0862 83.8959 96.3441 83.6814 96.2269 83.4908C94.3516 80.846 90.9526 80.2026 88.6788 78.0344C87.6239 77.0336 86.8503 75.6754 86.9675 74.1743C87.0847 72.84 87.7411 71.6486 88.2334 70.4334C88.796 69.1944 89.0304 67.8601 88.9601 66.5019C88.8194 65.0961 88.4443 63.7141 87.8583 62.4274C86.569 59.5205 84.8344 56.828 82.7246 54.4453C80.3336 51.729 77.4972 49.4415 74.3326 47.7021C74.1217 47.583 74.0045 47.9166 74.192 48.0119Z" fill="white"/>
<path d="M86.4987 60.0687C88.3975 58.8058 89.1241 56.3278 88.1865 54.2072C88.0927 53.9927 87.7645 54.1357 87.8583 54.3501C88.7256 56.304 88.0458 58.6152 86.2877 59.8066C86.1002 59.9257 86.3112 60.1878 86.4987 60.0687Z" fill="white"/>
<path d="M88.2802 69.5519C86.0768 69.0992 84.1077 67.8364 82.795 65.9778C82.6543 65.7872 82.3965 66.0017 82.5137 66.1923C83.8967 68.1223 85.9361 69.4328 88.2334 69.8855C88.4678 69.957 88.5147 69.5996 88.2802 69.5519Z" fill="white"/>
<path d="M80.1226 52.1341C79.4897 52.7774 78.5989 53.0395 77.7316 52.8727C77.5206 52.8251 77.4738 53.1825 77.6847 53.2301C78.6458 53.4208 79.6304 53.1348 80.3336 52.42C80.4039 52.3485 80.4274 52.2532 80.357 52.1817C80.3102 52.0864 80.193 52.0864 80.1226 52.1341Z" fill="white"/>
<path d="M11.791 90.0674C15.3072 90.0674 18.1671 92.9743 18.1671 96.5484C18.1671 99.646 16.0104 102.315 13.01 102.91V113.513H8.93115V90.0674H11.791Z" fill="#3F3D56"/>
<path d="M168.051 152.209V154.425C167.137 155.616 166.176 156.808 165.191 157.951C165.074 158.071 164.98 158.19 164.863 158.333C164.699 158.523 164.535 158.738 164.347 158.928V152.209H168.051Z" fill="#CACACA"/>
<path d="M157.198 147.563C155.487 147.563 154.127 148.969 154.127 150.684V155.187C154.127 156.927 155.51 158.309 157.198 158.309H164.863C164.98 158.19 165.074 158.071 165.191 157.928C166.176 156.76 167.137 155.593 168.051 154.401C168.122 154.33 168.168 154.234 168.239 154.163C168.778 153.472 169.294 152.781 169.809 152.066C170.208 151.518 170.606 150.946 170.981 150.398C171.638 149.469 172.271 148.516 172.88 147.563H157.198Z" fill="#3F3D56"/>
<path d="M176.912 109.01C176.443 108.843 175.951 108.772 175.459 108.772H174.193C173.724 108.772 173.279 108.843 172.833 108.986C170.935 109.582 169.645 111.369 169.645 113.394V150.994C169.645 151.137 169.645 151.28 169.669 151.399C169.692 151.637 169.739 151.876 169.786 152.114C170.184 151.566 170.583 150.994 170.958 150.446C171.614 149.517 172.247 148.564 172.857 147.611C173.185 147.086 173.513 146.562 173.841 146.038C176.162 142.249 178.225 138.318 179.983 134.22V113.394C180.006 111.393 178.764 109.63 176.912 109.01Z" fill="#3F3D56"/>
<path d="M21.7771 152.209V156.689C20.7222 155.402 19.7142 154.091 18.7297 152.757C18.589 152.566 18.4718 152.4 18.3312 152.209H21.7771Z" fill="#CACACA"/>
<path d="M28.9032 147.563H15.1431C15.5885 148.254 16.0105 148.921 16.4558 149.588C17.0419 150.47 17.6514 151.351 18.2843 152.209C18.4249 152.4 18.5421 152.59 18.6828 152.757C19.6673 154.091 20.6987 155.402 21.7302 156.689C21.9177 156.927 22.1287 157.165 22.3162 157.403C22.574 157.713 22.8319 158.023 23.1132 158.333H28.8798C30.591 158.333 31.9506 156.927 31.9506 155.211V150.708C31.9975 148.969 30.6144 147.563 28.9032 147.563Z" fill="#3F3D56"/>
<path d="M14.0179 109.272C13.3616 108.939 12.6583 108.748 11.9082 108.748H10.6424C10.0563 108.748 9.47032 108.867 8.90772 109.105C7.1965 109.82 6.09476 111.512 6.09476 113.371V129.525C8.46234 135.84 11.4863 141.892 15.1197 147.563C15.5651 148.23 15.987 148.921 16.4324 149.588V113.371C16.4793 111.655 15.5182 110.082 14.0179 109.272Z" fill="#3F3D56"/>
<path d="M65.2374 179.063L69.363 178.086L67.6753 161.454L61.5805 162.86L65.2374 179.063Z" fill="#9E616A"/>
<path d="M68.988 164.623C68.8942 164.337 68.8473 164.027 68.8239 163.718C68.8004 163.36 68.7301 163.003 68.6129 162.645C68.4957 162.336 68.355 162.026 68.191 161.74C68.1206 161.597 68.0269 161.43 67.9565 161.287C67.8862 161.144 67.8159 160.978 67.7456 160.811C65.3311 153.543 61.9556 143.703 59.6114 137.936C58.2284 134.529 49.766 133.409 41.796 133.123C40.8349 133.076 39.8503 133.052 38.9127 133.052C38.5845 133.052 38.2563 133.052 37.9516 133.052C37.1311 133.052 36.3341 133.052 35.5606 133.052C35.4668 133.052 35.3496 133.052 35.2558 133.052C34.6932 133.052 34.1541 133.076 33.6149 133.076C30.005 133.147 27.3326 133.314 26.8638 133.338L22.6444 130.645L21.8239 130.121L21.7302 130.645L21.0738 134.672L19.9486 141.534L22.785 142.345L24.6369 142.869L35.5606 145.99L37.8813 146.657H37.9047H41.8194L52.5087 146.633L53.0244 148.015C52.2977 149.159 52.6259 150.66 53.7511 151.399C53.8448 151.447 53.9152 151.494 54.0089 151.542L54.4074 151.732L59.2832 164.861C59.3067 166.053 59.6583 167.196 60.3381 168.173C60.4319 168.293 60.5022 168.412 60.596 168.531L60.7132 168.65L62.5885 172.391L63.7137 172.129L68.4723 171.009L68.4957 170.961C68.4957 170.961 68.566 170.818 68.6598 170.604C68.9645 169.651 69.8084 167.053 68.988 164.623Z" fill="#2F2E41"/>
<path d="M80.5914 180.158C79.8413 176.799 76.5595 174.702 73.2777 175.465C73.2543 175.465 73.2543 175.465 73.2309 175.465L69.9256 173.963L69.0114 174.631L65.1905 177.371L64.8857 177.442L63.8543 177.68L65.2608 183.971L80.6383 180.397L80.5914 180.158Z" fill="#2F2E41"/>
<path d="M60.1975 170.485L58.791 181.969L58.7441 182.351L58.5331 184.066C57.7361 183.733 56.9157 183.399 56.1421 183.042C55.392 182.708 54.6653 182.374 53.9386 182.017V170.485H60.1975Z" fill="#9E616A"/>
<path d="M29.9346 91.4731C34.6082 91.4731 38.397 87.622 38.397 82.8714C38.397 78.1209 34.6082 74.2698 29.9346 74.2698C25.261 74.2698 21.4723 78.1209 21.4723 82.8714C21.4723 87.622 25.261 91.4731 29.9346 91.4731Z" fill="#9E616A"/>
<path d="M61.0882 174.869C60.8538 174.535 60.6194 174.202 60.596 173.868C60.5491 172.724 60.4788 171.581 60.4319 170.461C60.385 169.675 60.3381 168.912 60.3147 168.15C60.3147 168.054 60.3147 167.959 60.2912 167.864C60.2209 166.625 60.5725 165.29 60.9241 164.028C61.0413 163.599 61.1586 163.194 61.2523 162.765C61.5102 161.835 61.6274 160.858 61.5805 159.882C60.971 152.161 58.2987 144.918 57.1032 143.679C55.2748 141.82 47 137.531 41.796 134.91C40.8583 134.434 40.0379 134.029 39.3581 133.695C38.7486 133.386 38.2798 133.171 37.9516 133.004C37.6937 132.885 37.5296 132.814 37.4828 132.766L37.4593 132.742L35.584 132.957L35.2793 133.004L33.6149 133.195L22.785 134.434L21.1207 134.625L18.7531 134.887L16.6199 135.125H16.5496L16.5262 135.196C16.5262 135.196 16.5262 135.22 16.5262 135.244C16.1511 137.603 16.1511 140.01 16.5262 142.345C16.8075 143.941 17.3232 145.561 18.2608 146.943C18.378 147.134 18.5187 147.301 18.6593 147.491C18.6593 147.491 18.6593 147.515 18.6828 147.515C18.7062 147.563 18.7531 147.587 18.7765 147.634C19.8314 148.897 21.2613 149.779 22.8553 150.16C23.0898 150.231 23.3242 150.279 23.582 150.327C26.2075 150.803 29.1611 151.232 32.0678 151.613C33.2633 151.78 34.4588 151.923 35.6075 152.066C37.9281 152.352 40.0613 152.567 41.8429 152.757C44.3276 153.019 46.0858 153.186 46.4608 153.21L50.7975 173.821C50.0942 175.036 50.3052 176.561 51.2897 177.538L51.6413 177.895L52.0633 179.849L53.4229 181.707L53.587 181.946H59.588L59.6114 181.898C59.6349 181.874 61.7446 179.11 61.6039 175.822C61.5571 175.536 61.3226 175.203 61.0882 174.869Z" fill="#2F2E41"/>
<path d="M60.9241 105.77C59.2129 105.293 57.4314 106.318 56.9625 108.057C56.9157 108.248 56.8688 108.438 56.8688 108.629L49.8364 110.869L50.1411 115.539L60.0099 112.227C61.7915 112.275 63.2917 110.821 63.3152 109.01C63.362 107.509 62.3775 106.151 60.9241 105.77Z" fill="#9E616A"/>
<path d="M56.3296 113.49L51.0788 115.515L50.9381 115.777C50.2583 117.087 48.6643 117.612 47.375 116.944L35.5606 121.496C35.5606 121.496 30.2863 116.134 26.5356 111.345L27.8249 103.339C28.1297 101.481 28.7391 99.6935 29.6768 98.0732C37.3656 99.7888 41.796 110.726 41.796 110.726L55.6733 108.033L56.3296 113.49Z" fill="#FBB03B"/>
<path d="M28.7157 90.9965C26.606 91.5684 24.2618 90.8059 22.6209 89.3286C20.98 87.8513 19.9252 85.7783 19.3391 83.6339C18.8937 82.0613 18.7062 80.3219 19.386 78.8446C20.0658 77.3673 21.9177 76.3665 23.3476 77.129C22.4568 76.0806 22.9022 74.365 23.9336 73.4596C24.9651 72.5542 26.3715 72.3159 27.7311 72.1729C29.6768 71.9585 31.6927 71.9585 33.568 72.6018C35.4434 73.2452 37.1077 74.651 37.6937 76.5572C38.9127 77.129 40.366 76.7954 41.2334 75.747C41.4443 76.9622 40.8583 78.1774 39.7566 78.7016L42.6164 77.7724C43.1087 78.8208 42.2414 80.1313 41.1396 80.4649C40.0379 80.7984 38.8658 80.441 37.8109 79.9406C36.7561 79.4403 35.7481 78.8446 34.6229 78.654C33.4977 78.4634 32.1616 78.8446 31.6459 79.8692C31.3646 80.4172 31.3646 81.0605 31.2005 81.6324C31.0364 82.2042 30.6379 82.8238 30.0284 82.8714C29.6533 82.8952 29.2783 82.7046 28.9032 82.7285C28.4344 82.8238 28.0593 83.205 27.9421 83.6815C27.8483 84.1581 27.8483 84.6346 27.9421 85.1112L28.6688 90.7344L28.7157 90.9965Z" fill="#2F2E41"/>
<path d="M39.3346 133.719L38.8893 133.028L35.6309 128.048L35.5606 127.953L36.5686 122.616L36.8733 120.948L37.5531 117.326L37.3421 109.034L37.2015 103.172L37.178 102.243L36.4514 100.003C35.7481 97.8828 34.2244 96.1434 32.2319 95.2142L27.3561 92.9506C26.1606 92.4025 24.7541 92.9267 24.215 94.1419C24.1915 94.1896 24.1681 94.2372 24.1446 94.2849C23.4648 94.3802 20.5815 94.8806 18.1202 96.8106C16.409 98.1449 15.19 100.051 14.7212 102.196C14.7212 102.219 14.7212 102.219 14.7212 102.243C14.393 103.721 14.1586 106.056 13.9945 109.225C13.9008 111.321 13.8304 113.776 13.7835 116.587C13.7367 121.281 13.9945 125.951 14.5571 130.598C14.604 131.05 14.6743 131.479 14.7212 131.932C14.7681 132.313 15.1197 132.647 15.4713 133.004C15.7761 133.314 16.1042 133.648 16.1511 133.934C16.198 134.196 16.0339 134.458 15.8464 134.744C15.8229 134.791 15.7995 134.815 15.7761 134.863C15.5417 135.22 15.2838 135.578 15.3541 135.935C15.4948 136.793 15.5885 137.651 15.6823 138.485C15.7761 139.628 15.9402 140.796 16.1746 141.916C16.2683 142.273 16.3621 142.607 16.4559 142.964C16.6903 143.798 16.995 144.608 17.2998 145.418C17.5576 146.109 17.8155 146.824 18.0264 147.539C18.0733 147.658 18.1202 147.801 18.1436 147.92L18.1671 147.992H18.2374C18.3312 147.825 18.4484 147.658 18.5656 147.515L18.589 147.491C18.6125 147.444 18.6594 147.42 18.7062 147.372C19.2219 146.8 20.3471 145.776 22.785 144.06C23.3242 143.679 23.9337 143.25 24.6369 142.797C27.1451 141.129 30.6613 138.961 35.5606 136.15C36.7795 135.435 38.1157 134.696 39.5222 133.91L39.3346 133.719Z" fill="#FBB03B"/>
<path d="M65.6358 186.139C64.4872 184.972 62.9166 184.305 61.2992 184.305L58.7441 182.351L58.4159 182.089L56.1421 183.018C56.9391 183.375 57.7361 183.709 58.5331 184.042C61.0413 185.091 63.6199 186.02 66.2453 186.83C66.0578 186.616 65.8703 186.354 65.6358 186.139Z" fill="#2F2E41"/>
<path d="M122.247 178.896L119.035 177.347L123.419 163.789L128.131 166.077L122.247 178.896Z" fill="#FFB6B6"/>
<path d="M143.625 176.703C142.688 177.299 141.75 177.871 140.812 178.419H140.789L140.437 178.514L139.922 177.132L138.726 173.916L135.468 165.171L140.531 163.908L140.812 165.1L142.946 173.94L143.555 176.465L143.625 176.703Z" fill="#FFB6B6"/>
<path d="M130.709 119.971C131.647 121.543 133.663 122.044 135.21 121.114C135.35 121.019 135.515 120.924 135.632 120.805L145.712 126.69L145.266 120.638L135.749 115.968C134.694 114.872 133.03 114.657 131.717 115.444C130.217 116.373 129.725 118.35 130.615 119.899C130.686 119.923 130.686 119.947 130.709 119.971Z" fill="#FFB6B6"/>
<path d="M141.398 124.474L143.18 125.57L151.197 130.526C153.4 131.932 156.331 131.241 157.714 129.001C158.3 128.001 158.511 126.833 158.3 125.689L154.737 107.604C154.221 104.888 151.642 103.101 148.97 103.601C148.736 103.649 148.478 103.72 148.243 103.792C145.899 104.626 144.61 107.175 145.29 109.606L149.017 122.425L143.321 119.732L141.398 124.474Z" fill="#FBB03B"/>
<path d="M174.24 142.297C174.24 142.297 174.24 142.273 174.216 142.225V142.202C174.193 142.106 174.193 142.011 174.169 141.916C173.701 139.509 173.068 137.126 172.341 134.768C171.896 133.338 171.31 131.956 170.583 130.645C170.559 130.598 170.536 130.55 170.513 130.526L170.419 130.383L169.692 130.645H169.669L158.581 134.768L155.369 135.959L155.276 136.007L154.737 138.27L147.071 137.269L140.836 136.435L139.031 136.197C137.46 135.983 135.866 136.435 134.624 137.412C133.311 138.437 132.491 139.962 132.28 141.606C132.256 141.797 132.233 141.963 132.233 142.154L131.694 162.693V162.717L131.952 163.217L137.179 173.892H140.812H142.946H144.68L141.047 164.576L141.117 164.456C141.797 163.384 141.961 162.026 141.539 160.835L141.938 159.643C142.781 157.165 142.383 155.974 141.867 154.473C141.422 153.258 141.141 151.971 141.07 150.66L140.976 148.969C143.11 149.35 145.079 149.779 147.001 150.184C147.634 150.327 148.267 150.47 148.9 150.613C150.681 151.018 152.392 151.399 154.08 151.733C157.479 152.4 160.761 152.805 164.113 152.543C164.183 152.543 164.254 152.543 164.301 152.519C165.121 152.447 165.942 152.352 166.762 152.185C167.231 152.09 167.7 151.995 168.168 151.876C168.309 151.852 168.426 151.804 168.567 151.78C168.942 151.685 169.294 151.542 169.622 151.351C170.091 151.089 170.536 150.756 170.911 150.398C171.567 149.469 172.2 148.516 172.81 147.563C173.138 147.039 173.466 146.514 173.794 145.99C174.31 144.704 174.498 143.369 174.24 142.297Z" fill="#2F2E41"/>
<path d="M174.31 138.437C174.263 138.294 174.24 138.127 174.193 137.984C173.818 136.841 173.396 135.721 172.904 134.649C172.341 133.41 171.685 132.075 170.888 130.646C170.513 129.955 170.091 129.216 169.645 128.477C169.434 128.096 169.2 127.715 168.965 127.334C168.965 127.31 168.942 127.31 168.942 127.286L168.872 127.167L157.901 128.668L153.822 129.216L153.588 131.289L153.518 131.813L153.353 133.219L153.143 135.054H153.119L147.071 134.267L140.836 133.433L137.484 133.004C135.913 132.79 134.319 133.243 133.077 134.22C131.764 135.244 130.944 136.769 130.733 138.413C130.709 138.58 130.686 138.747 130.686 138.914L127.521 146.538C125.622 151.089 124.427 155.926 123.935 160.835L121.614 168.388L121.942 168.412L126.865 168.888L128.154 169.008L131.014 164.766C131.342 164.29 131.647 163.789 131.928 163.265C132.397 162.431 132.819 161.573 133.194 160.692L139.382 145.728C139.851 145.824 140.344 145.895 140.812 145.967C142.992 146.324 145.055 146.61 147.048 146.848C153.541 147.587 159.144 147.634 164.16 147.015C165.566 146.848 166.926 146.61 168.239 146.324C168.708 146.229 169.2 146.109 169.669 145.99C169.786 145.967 169.88 145.943 169.997 145.919C171.966 145.395 173.537 143.917 174.169 141.94C174.544 140.796 174.591 139.581 174.31 138.437Z" fill="#2F2E41"/>
<path d="M151.009 93.427C155.204 93.427 158.604 89.896 158.604 85.5402C158.604 81.1844 155.204 77.6533 151.009 77.6533C146.815 77.6533 143.414 81.1844 143.414 85.5402C143.414 89.896 146.815 93.427 151.009 93.427Z" fill="#FFB6B6"/>
<path d="M169.012 127.572C168.989 127.476 168.989 127.405 168.965 127.309C168.778 126.332 168.309 125.403 167.864 124.474C167.442 123.592 167.02 122.758 166.856 121.948C166.692 121.138 166.785 120.328 166.879 119.542C166.973 118.684 167.09 117.802 166.856 116.945C165.637 112.584 163.949 108.343 161.839 104.34C160.761 100.742 157.69 98.1209 154.033 97.6444C154.244 97.2393 154.338 96.7866 154.291 96.3339C154.221 95.7382 153.94 95.214 153.494 94.8327C153.049 94.4753 152.51 94.3085 151.947 94.38L148.431 94.7851C147.259 94.928 146.415 96.0241 146.556 97.2155C146.579 97.3823 146.626 97.5729 146.673 97.7397C143.391 101.981 141.727 105.841 141.563 109.487C141.539 109.915 141.539 110.321 141.563 110.749C141.633 112.108 141.938 113.442 142.43 114.729C143.016 116.182 143.813 117.564 144.774 118.803C144.961 119.065 145.172 119.303 145.383 119.542C145.571 119.78 145.805 120.018 146.04 120.304L146.649 121.281L147.235 122.187L150.306 129.382L151.877 129.335L152.088 130.931L152.135 131.289L153.143 134.982L153.213 135.268L154.596 134.601L162.871 130.621L169.059 127.643L169.012 127.572Z" fill="#FBB03B"/>
<path opacity="0.2" d="M142.5 114.705C143.203 116.468 144.188 118.088 145.43 119.494C145.641 119.756 145.876 119.995 146.11 120.257L147.306 122.163C151.736 118.803 155.323 105.531 155.323 105.531L150.33 104.554L142.5 114.705Z" fill="black"/>
<path d="M139.476 94.1657C140.39 95.7621 139.875 97.7874 138.351 98.7643C138.21 98.8596 138.046 98.9311 137.882 99.0026L138.234 110.821L133.194 107.604L133.639 96.882C133.194 95.4047 133.78 93.8321 135.069 93.0219C136.569 92.0927 138.539 92.593 139.429 94.118C139.453 94.118 139.453 94.1418 139.476 94.1657Z" fill="#FFB6B6"/>
<path d="M138.656 106.341L133.124 107.152L133.358 118.803C133.381 120.495 134.272 122.044 135.702 122.901C137.46 123.95 139.711 123.688 141.187 122.258L154.268 109.487C156.166 107.652 156.331 104.602 154.643 102.577C152.978 100.551 150.001 100.313 148.009 102.005C147.962 102.029 147.939 102.076 147.892 102.1C147.751 102.219 147.634 102.338 147.517 102.481L138.89 112.584L138.656 106.341Z" fill="#FBB03B"/>
<path d="M143.766 176.418L143.555 176.465L140.789 176.99L139.898 177.156L138.492 177.418L138.984 179.468C139.593 179.134 140.179 178.8 140.765 178.443H140.789C141.75 177.895 142.688 177.323 143.602 176.727C143.672 176.68 143.743 176.656 143.789 176.608L143.766 176.418Z" fill="#2F2E41"/>
<path d="M123.255 176.68L119.809 174.988L119.27 174.726L118.402 176.894L112.354 178.252C111.581 178.419 111.089 179.205 111.253 179.992C111.346 180.468 111.675 180.849 112.12 181.04L118.027 183.494L119.903 181.779L119.434 184.09L121.661 185.019L124.099 177.132L123.255 176.68Z" fill="#2F2E41"/>
<path d="M171.286 82.1329C169.997 80.608 169.387 78.5826 168.356 76.8432C167.325 75.1038 165.543 73.5551 163.644 73.9601C162.332 74.246 161.324 75.4136 160.808 76.7241C160.292 78.0346 160.198 79.4642 160.105 80.8939C160.128 77.9869 158.253 75.1753 155.674 74.246C153.096 73.3168 149.978 74.3414 148.361 76.6764C146.884 75.2944 144.633 75.2468 143.11 76.5573C141.656 77.8678 141.328 80.3935 142.406 82.0852C143.485 83.777 145.805 84.3965 147.493 83.4672L148.103 84.0391C147.774 85.2543 148.431 86.6601 149.533 87.1128C150.423 87.4702 151.689 87.4226 152.017 88.3757C152.252 89.0428 151.806 89.7576 151.338 90.258C150.869 90.7822 150.33 91.3064 150.259 91.9974C150.165 93.0697 151.267 93.8083 152.252 94.0466C154.643 94.5946 157.292 93.4747 158.651 91.3303C158.675 91.2826 158.698 91.2588 158.745 91.2111C160.292 89.1858 160.972 86.5886 160.597 84.0629C160.527 83.5625 160.597 83.2051 160.925 83.086C162.378 82.5856 166.434 83.634 167.653 84.6109C168.872 85.564 169.856 86.8507 171.052 87.8515C172.224 88.876 173.748 89.6623 175.248 89.3764C176.443 89.162 177.475 88.2565 178.154 87.1843C178.834 86.1121 179.233 84.873 179.584 83.634C176.959 85.1828 173.326 84.5395 171.286 82.1329Z" fill="#2F2E41"/>
<path d="M147.048 129.12V174.44C146.204 175.036 145.337 175.608 144.469 176.179V132.123C144.469 130.836 144.047 129.811 143.532 129.811H104.502C103.986 129.811 103.564 130.86 103.564 132.123V190.619C103.048 190.666 102.533 190.714 101.993 190.762C101.782 190.786 101.571 190.809 101.337 190.809C101.22 190.571 101.103 190.333 100.962 190.095V129.12C100.962 128.763 100.985 128.406 101.009 128.072C101.22 125.094 102.275 122.925 103.494 122.925H144.516C144.657 122.925 144.821 122.949 144.938 123.021C145.969 123.473 146.766 125.403 146.977 127.929C147.048 128.31 147.048 128.715 147.048 129.12Z" fill="#E4E4E4"/>
<path d="M84.4358 129.12V190.428C84.3889 190.476 84.3655 190.547 84.3421 190.595C83.4513 190.5 82.584 190.404 81.7166 190.285V132.123C81.7166 130.836 81.2712 129.811 80.7086 129.811H39.2643C38.7017 129.811 38.2563 130.86 38.2563 132.123V172.51C37.3421 171.819 36.4279 171.104 35.5137 170.366V129.12C35.5137 128.763 35.5371 128.406 35.5606 128.072C35.795 125.094 36.8967 122.925 38.2094 122.925H81.7401C81.9042 122.925 82.0448 122.949 82.2089 123.021C83.3106 123.473 84.1545 125.403 84.3889 127.929C84.4124 128.31 84.4358 128.715 84.4358 129.12Z" fill="#E4E4E4"/>
<path d="M70.5586 108.748L73.2778 120.876L75.0124 122.806H76.2548L71.0977 100.742L70.8399 104.483L70.5586 108.748Z" fill="#3F3D56"/>
<path d="M79.5835 123.426C79.5835 123.402 79.5601 123.378 79.5601 123.378C79.5366 123.33 79.4897 123.259 79.4429 123.235L79.1381 122.925L77.4738 121.234C77.3566 121.114 77.1925 121.043 77.005 121.043H75.8329H74.8249H73.4184L63.8075 121.114L57.5017 121.162C57.1501 121.162 56.8688 121.472 56.8454 121.829C56.8454 121.925 56.8688 122.02 56.9157 122.115L57.0329 122.377L57.2908 122.925L57.6189 123.64L57.783 123.998C57.9002 124.236 58.1112 124.379 58.3691 124.379H78.9975C79.3725 124.379 79.6538 124.069 79.6538 123.688C79.6538 123.592 79.6304 123.521 79.5835 123.426Z" fill="#3F3D56"/>
<path opacity="0.17" d="M57.6189 123.64L57.783 123.998C57.9002 124.236 58.1112 124.379 58.369 124.379H78.9974C79.3725 124.379 79.6538 124.069 79.6538 123.688C79.6538 123.593 79.6304 123.521 79.6069 123.426C79.6069 123.402 79.5835 123.378 79.5835 123.378L57.6189 123.64Z" fill="black"/>
<path opacity="0.17" d="M70.8398 104.483L75.2468 122.806H76.2548L71.0977 100.742L70.8398 104.483Z" fill="black"/>
<path d="M77.7785 53.2066L77.1221 53.1351C76.9346 53.1113 76.7705 53.1589 76.6299 53.2781L76.2314 53.5878L71.9181 59.0681C71.7775 59.1873 71.6837 59.354 71.6603 59.5208L71.4259 61.3794L65.4249 107.867C65.4014 108.033 65.4483 108.224 65.5421 108.343L68.3785 116.278L68.4723 116.397L68.6598 116.659C68.7536 116.802 68.8942 116.897 69.0583 116.921L69.4802 117.016C69.6678 117.064 69.8788 117.016 70.0194 116.921C70.1835 116.802 70.2773 116.635 70.3007 116.444L71.0274 110.773L71.4962 107.128L71.8947 104.054L78.3645 53.9691C78.4114 53.6117 78.1536 53.2542 77.7785 53.2066Z" fill="#3F3D56"/>
<path opacity="0.17" d="M76.2314 53.564L68.3785 116.278L68.4723 116.397L68.6598 116.659C68.7536 116.802 68.8942 116.897 69.0583 116.921L69.4802 117.016C69.8553 117.112 70.2069 116.873 70.3007 116.516C70.3007 116.492 70.3007 116.468 70.3241 116.444L78.4114 53.9691C78.4583 53.5878 78.2004 53.2542 77.8254 53.2066L77.1221 53.1351C76.9346 53.1113 76.7705 53.1589 76.6299 53.2781L76.2314 53.564Z" fill="black"/>
<path d="M75.9969 55.3508L71.8244 61.403L66.8782 99.765L69.5506 105.198L75.9969 55.3508Z" fill="#1B1464"/>
<path d="M116.644 108.748L113.949 120.876L112.214 122.806H110.948L116.105 100.742L116.363 104.483L116.644 108.748Z" fill="#3F3D56"/>
<path d="M129.725 121.138L113.808 121.043H112.401H111.393H110.221C110.057 121.043 109.893 121.114 109.776 121.234L107.783 123.259C107.737 123.307 107.713 123.354 107.666 123.402C107.643 123.426 107.643 123.426 107.643 123.45C107.502 123.783 107.643 124.188 107.994 124.331C108.065 124.355 108.159 124.379 108.252 124.379H128.881C129.139 124.379 129.373 124.236 129.467 123.998L129.631 123.64L129.959 122.925L130.334 122.115C130.381 122.02 130.404 121.925 130.404 121.829C130.358 121.448 130.076 121.162 129.725 121.138Z" fill="#3F3D56"/>
<path opacity="0.17" d="M129.584 123.64L129.42 123.998C129.303 124.236 129.092 124.379 128.834 124.379H108.205C107.83 124.379 107.549 124.069 107.549 123.688C107.549 123.593 107.572 123.521 107.596 123.426C107.596 123.402 107.619 123.378 107.619 123.378L129.584 123.64Z" fill="black"/>
<path opacity="0.17" d="M116.363 104.483L111.956 122.806H110.948L116.105 100.742L116.363 104.483Z" fill="black"/>
<path d="M121.778 107.843L115.519 59.4969C115.496 59.3063 115.402 59.1395 115.261 59.0442L110.948 53.5639L110.55 53.2541C110.409 53.135 110.221 53.0874 110.057 53.1112L109.401 53.2065C109.026 53.2541 108.768 53.6116 108.815 53.969L115.332 104.078L115.73 107.152L116.199 110.797L116.926 116.468C116.949 116.659 117.066 116.849 117.23 116.945C117.394 117.064 117.582 117.088 117.769 117.04L118.191 116.945C118.356 116.897 118.496 116.802 118.59 116.683L118.777 116.42L118.871 116.301L121.708 108.367C121.778 108.2 121.801 108.009 121.778 107.843Z" fill="#3F3D56"/>
<path opacity="0.17" d="M110.971 53.5639L118.848 116.277L118.754 116.397L118.566 116.659C118.473 116.802 118.332 116.897 118.168 116.921L117.746 117.016C117.371 117.111 117.019 116.873 116.926 116.516C116.926 116.492 116.926 116.468 116.902 116.444L108.815 53.969C108.768 53.5877 109.026 53.2541 109.401 53.2065L110.057 53.1112C110.245 53.0874 110.409 53.135 110.55 53.2541L110.971 53.5639Z" fill="black"/>
<path d="M111.206 55.3508L115.378 61.403L120.348 99.765L117.652 105.198L111.206 55.3508Z" fill="#1B1464"/>
<path d="M33.6384 132.694C33.6384 132.814 33.6384 132.933 33.6149 133.052C33.6149 133.1 33.5915 133.171 33.5915 133.219C33.3571 134.124 32.5366 134.767 31.6224 134.767H22.8085V156.164C22.8085 156.617 22.6678 157.046 22.3865 157.427C22.1755 157.189 21.988 156.951 21.8005 156.712C20.7456 155.426 19.7376 154.115 18.7531 152.781V134.791H14.7681C13.6429 134.791 12.7287 133.862 12.7287 132.718C12.7287 131.646 13.5491 130.741 14.604 130.669C14.6509 130.669 14.7212 130.669 14.7681 130.669H31.599C32.7242 130.645 33.6384 131.551 33.6384 132.694Z" fill="#3F3D56"/>
<path d="M174.193 132.694C174.193 133.552 173.677 134.315 172.88 134.624C172.693 134.696 172.505 134.744 172.318 134.744C172.271 134.744 172.2 134.744 172.153 134.744H168.215V154.163C168.145 154.234 168.098 154.33 168.028 154.401C167.114 155.616 166.152 156.784 165.168 157.928C164.535 157.57 164.136 156.879 164.136 156.141V134.744H155.323C155.065 134.744 154.807 134.696 154.572 134.601C153.963 134.339 153.494 133.814 153.353 133.147C153.236 132.671 153.307 132.17 153.518 131.741C153.611 131.551 153.729 131.384 153.869 131.217C154.244 130.812 154.783 130.598 155.323 130.598H172.153C173.279 130.645 174.193 131.551 174.193 132.694Z" fill="#3F3D56"/>
<path d="M174.076 92.8313C170.559 92.8313 167.7 95.7382 167.7 99.3123C167.7 102.41 169.856 105.079 172.857 105.674V116.277H176.935V92.8313H174.076Z" fill="#3F3D56"/>
<path d="M62.6822 116.516C61.1585 115.61 59.166 116.111 58.2753 117.683C58.1815 117.85 58.0877 118.017 58.0408 118.208L50.6802 118.494L49.6957 121.972L60.1506 122.52C61.8618 123.045 63.6668 122.044 64.1825 120.304C64.581 118.827 63.9715 117.278 62.6822 116.516Z" fill="#9E616A"/>
<path d="M56.6344 122.901L49.0862 122.806L48.1251 122.782L32.7476 122.592C32.7476 122.592 28.575 118.541 24.9416 114.371L25.4573 110.63C25.9496 106.961 27.7546 103.577 30.4972 101.147C35.7012 104.673 38.7251 111.679 38.7251 111.679L43.7885 113.99C47.3516 114.157 50.8209 115.181 53.9152 116.992L55.5795 117.969L56.6344 122.901Z" fill="#FBB03B"/>
<path d="M80.3805 190.095H107.643C105.791 190.381 103.916 190.595 102.017 190.762H86.0299C84.1077 190.595 82.2324 190.381 80.3805 190.095Z" fill="#CCCCCC"/>
<path d="M98.4303 178.3C97.5396 177.228 97.5396 175.655 98.4538 174.583C98.5476 174.488 98.7116 174.607 98.6179 174.726C97.774 175.727 97.774 177.18 98.6179 178.181C98.6882 178.276 98.5241 178.395 98.4303 178.3Z" fill="white"/>
<path d="M95.758 183.518C97.1176 183.661 98.4772 183.256 99.579 182.398C99.6962 182.303 99.8134 182.494 99.6962 182.565C98.5475 183.447 97.1411 183.852 95.7111 183.709C95.5939 183.709 95.6408 183.518 95.758 183.518Z" fill="white"/>
<path d="M103.517 174.774C103.775 175.25 104.244 175.584 104.783 175.631C104.924 175.631 104.877 175.846 104.76 175.846C104.173 175.798 103.634 175.441 103.353 174.916C103.33 174.869 103.33 174.797 103.376 174.774C103.423 174.726 103.494 174.726 103.517 174.774Z" fill="white"/>
<path d="M97.7506 33.0484C83.1466 36.9561 66.972 39.3388 50.5162 39.9822C48.1017 40.1251 45.6873 40.1013 43.2728 39.9345C37.975 39.4818 33.4509 37.7901 28.3875 36.8608C25.9496 36.4081 23.2539 36.0983 20.8159 35.6218C21.3785 34.907 21.9646 34.216 22.5506 33.5011C27.8249 33.9539 33.1696 35.4312 38.5142 36.1222C47.586 37.2897 57.7361 35.9792 64.6279 32.7625C67.9566 31.1899 70.5117 29.2361 73.8403 27.6634C74.2857 27.4252 74.778 27.2822 75.2937 27.2107C76.3486 27.1154 77.2628 27.5443 78.0129 27.9255C83.592 30.7848 91.6792 33.1199 99.2039 31.8332C99.7196 32.286 98.6648 32.8102 97.7506 33.0484Z" fill="white"/>
<path d="M130.99 43.1275C131.061 43.1036 131.131 43.1036 131.201 43.1036C130.92 42.913 130.639 42.7224 130.381 42.4841L130.99 43.1275Z" fill="white"/>
<path d="M175.974 48.7746C172.833 49.0367 169.669 49.2273 166.504 49.3465C164.09 49.4894 161.675 49.4656 159.261 49.2988C153.963 48.8461 149.439 47.1544 144.375 46.2251C139.734 45.3673 134.108 44.9622 131.178 43.1037C138.773 41.7694 146.649 44.4857 154.479 45.5103C160.808 46.2966 167.231 45.9868 173.466 44.5572C174.357 45.9153 175.201 47.3211 175.974 48.7746Z" fill="white"/>
<path d="M106.322 80.7747C98.985 55.1127 94.6483 28.6643 94.6483 1.93001V0H92.2104V1.93001C92.2104 28.6405 87.8737 55.1126 80.5366 80.7509C80.185 81.9899 79.9974 83.2766 79.9974 84.5632C79.9974 86.6124 81.6383 88.2803 83.6543 88.2803H88.5301C88.5301 91.0205 90.7101 93.2602 93.4059 93.2602C96.1017 93.2602 98.3052 91.0443 98.3052 88.3041H102.103V99.0026C100.954 99.0265 100.04 100.027 100.063 101.195C100.087 102.362 101.071 103.292 102.22 103.268C103.368 103.244 104.283 102.243 104.259 101.076C104.236 100.075 103.533 99.2409 102.571 99.0503V88.3041H103.181C105.197 88.3041 106.838 86.6362 106.838 84.5871C106.861 83.3004 106.674 82.0137 106.322 80.7747Z" fill="#1B1464"/>
</svg>
