<svg width="72" height="72" viewBox="0 0 72 72" fill="none" xmlns="http://www.w3.org/2000/svg">
<path d="M6 48C6 38.4546 12.7157 33 21 33C29.2843 33 36 38.4546 36 48H6Z" stroke="#1B1464" stroke-width="6" stroke-linejoin="round"/>
<path d="M15 24H27" stroke="#1B1464" stroke-width="6" stroke-linecap="round" stroke-linejoin="round"/>
<path d="M30 48C30 52.9707 25.9705 57 21 57C16.0295 57 12 52.9707 12 48" stroke="#1B1464" stroke-width="6"/>
<path d="M60 57C63.3137 57 66 54.3137 66 51C66 47.6863 63.3137 45 60 45C56.6863 45 54 47.6863 54 51C54 54.3137 56.6863 57 60 57Z" stroke="#1B1464" stroke-width="6"/>
<path d="M48 24C51.9999 25.913 60 33.5217 60 45M47.9697 15H49.6098C52.5642 15 55.2738 16.7378 56.6427 19.5102C57.5892 21.4279 56.6427 24 53.9547 24H47.9697M47.9697 15V24M47.9697 15H38.8332M47.9697 24C47.9697 29.7391 47.3328 48 36 48H52.9995" stroke="#1B1464" stroke-width="6" stroke-linecap="round" stroke-linejoin="round"/>
</svg>
