<svg width="260" height="120" viewBox="0 0 260 120" fill="none" xmlns="http://www.w3.org/2000/svg">
<g clip-path="url(#clip0_75_306)">
<path d="M1.14412 22.2778V0.492188H14.3454V2.77364H3.74038V10.1101H13.9934V12.3915H3.74038V20.0187H14.3674V22.3002H1.14412V22.2778Z" fill="white"/>
<path d="M25.8746 0.492188H31.8592C34.4774 0.492188 36.4356 1.40924 37.7338 3.24335C39.0319 5.07746 39.67 7.78389 39.67 11.385C39.67 14.9861 39.0319 17.6926 37.7338 19.5267C36.4356 21.3608 34.4995 22.2778 31.8592 22.2778H25.8746V0.492188ZM31.7272 19.9964C33.4433 19.9964 34.7415 19.3925 35.6216 18.1846C36.5016 16.9768 36.9197 15.2769 36.9197 13.0626V9.68511C36.9197 7.47075 36.4796 5.77085 35.6216 4.56302C34.7415 3.35519 33.4653 2.75127 31.7272 2.75127H28.4488V19.974H31.7272V19.9964Z" fill="white"/>
<path d="M56.7437 22.658C55.4236 22.658 54.3014 22.412 53.3553 21.8976C52.4093 21.3831 51.6392 20.645 51.0231 19.7056C50.4071 18.7438 49.967 17.5807 49.681 16.1716C49.395 14.7624 49.2409 13.1967 49.2409 11.385C49.2409 9.61797 49.3729 8.0299 49.681 6.62076C49.967 5.21163 50.4071 4.02617 51.0231 3.08675C51.6392 2.12496 52.4093 1.38684 53.3553 0.894762C54.3014 0.380317 55.4236 0.134277 56.7437 0.134277C58.0638 0.134277 59.1859 0.380317 60.132 0.894762C61.0781 1.40921 61.8482 2.14732 62.4643 3.08675C63.0803 4.04854 63.5204 5.234 63.8064 6.62076C64.0924 8.0299 64.2464 9.61797 64.2464 11.385C64.2464 13.1744 64.0924 14.7624 63.8064 16.1716C63.5204 17.5583 63.0803 18.7438 62.4643 19.7056C61.8482 20.6674 61.0781 21.4055 60.132 21.8976C59.1639 22.3896 58.0418 22.658 56.7437 22.658ZM56.7437 20.3766C57.6018 20.3766 58.3278 20.1977 58.9219 19.8621C59.516 19.5266 60 19.0346 60.3961 18.4083C60.7921 17.782 61.0561 17.0215 61.2321 16.1492C61.4081 15.2545 61.4962 14.2703 61.4962 13.1744V9.5956C61.4962 8.52198 61.4081 7.51545 61.2321 6.62076C61.0561 5.72608 60.7701 4.96559 60.3961 4.33931C60 3.71303 59.516 3.22095 58.9219 2.88544C58.3278 2.54993 57.6018 2.371 56.7437 2.371C55.8856 2.371 55.1595 2.54993 54.5655 2.88544C53.9714 3.22095 53.4874 3.71303 53.0913 4.33931C52.6953 4.96559 52.4313 5.72608 52.2552 6.62076C52.0792 7.51545 51.9912 8.49961 51.9912 9.5956V13.152C51.9912 14.248 52.0792 15.2545 52.2552 16.1268C52.4313 17.0215 52.7173 17.7596 53.0913 18.3859C53.4874 19.0122 53.9714 19.5043 54.5655 19.8398C55.1375 20.1977 55.8636 20.3766 56.7437 20.3766Z" fill="white"/>
<path d="M86.8647 22.2778L85.0605 16.0598H77.5357L75.7316 22.2778H73.0473L79.626 0.492188H83.0363L89.615 22.2778H86.8647ZM81.4301 3.26572H81.1441L78.1298 13.7783H84.4224L81.4301 3.26572Z" fill="white"/>
<path d="M102.002 22.2778H99.4279V0.492188H107.217C109.197 0.492188 110.715 1.05137 111.771 2.14736C112.805 3.24335 113.333 4.78669 113.333 6.77737C113.333 8.54438 112.893 9.95351 111.991 11.0271C111.089 12.0784 109.791 12.7047 108.053 12.8612L113.509 22.2778H110.627L105.413 12.9731H102.002V22.2778ZM107.151 10.7587C108.229 10.7587 109.087 10.4903 109.681 9.93114C110.275 9.37197 110.583 8.58911 110.583 7.58259V5.94978C110.583 4.92089 110.275 4.13804 109.681 3.60123C109.087 3.04205 108.229 2.77364 107.151 2.77364H102.002V10.7587H107.151Z" fill="white"/>
<path d="M124.136 0.492188H130.121C132.739 0.492188 134.697 1.40924 135.996 3.24335C137.294 5.07746 137.932 7.78389 137.932 11.385C137.932 14.9861 137.294 17.6926 135.996 19.5267C134.697 21.3608 132.761 22.2778 130.121 22.2778H124.136V0.492188ZM129.989 19.9964C131.705 19.9964 133.003 19.3925 133.883 18.1846C134.763 16.9768 135.182 15.2769 135.182 13.0626V9.68511C135.182 7.47075 134.741 5.77085 133.883 4.56302C133.003 3.35519 131.727 2.75127 129.989 2.75127H126.711V19.974H129.989V19.9964Z" fill="white"/>
<path d="M154.984 22.658C153.663 22.658 152.541 22.412 151.595 21.8976C150.649 21.3831 149.879 20.645 149.263 19.7056C148.647 18.7438 148.207 17.5807 147.921 16.1716C147.635 14.7624 147.481 13.1967 147.481 11.385C147.481 9.61797 147.613 8.0299 147.921 6.62076C148.207 5.21163 148.647 4.02617 149.263 3.08675C149.879 2.12496 150.649 1.38684 151.595 0.894762C152.541 0.380317 153.663 0.134277 154.984 0.134277C156.304 0.134277 157.426 0.380317 158.372 0.894762C159.318 1.40921 160.088 2.14732 160.704 3.08675C161.32 4.04854 161.76 5.234 162.046 6.62076C162.332 8.0299 162.486 9.61797 162.486 11.385C162.486 13.1744 162.332 14.7624 162.046 16.1716C161.76 17.5583 161.32 18.7438 160.704 19.7056C160.088 20.6674 159.318 21.4055 158.372 21.8976C157.426 22.3896 156.304 22.658 154.984 22.658ZM154.984 20.3766C155.842 20.3766 156.568 20.1977 157.162 19.8621C157.756 19.5266 158.24 19.0346 158.636 18.4083C159.032 17.782 159.296 17.0215 159.472 16.1492C159.648 15.2545 159.736 14.2703 159.736 13.1744V9.5956C159.736 8.52198 159.648 7.51545 159.472 6.62076C159.296 5.72608 159.01 4.96559 158.636 4.33931C158.24 3.71303 157.756 3.22095 157.162 2.88544C156.568 2.54993 155.842 2.371 154.984 2.371C154.125 2.371 153.399 2.54993 152.805 2.88544C152.211 3.22095 151.727 3.71303 151.331 4.33931C150.935 4.96559 150.671 5.72608 150.495 6.62076C150.319 7.51545 150.231 8.49961 150.231 9.5956V13.152C150.231 14.248 150.319 15.2545 150.495 16.1268C150.671 17.0215 150.957 17.7596 151.331 18.3859C151.727 19.0122 152.211 19.5043 152.805 19.8398C153.399 20.1977 154.125 20.3766 154.984 20.3766Z" fill="white"/>
<path d="M12.3652 42.5648V35.6757H12.1232L7.61277 46.8817L3.08031 35.6757H2.83829V42.5648V53.48H0.484055V31.6943H3.80639L7.59076 41.3122H7.76678L11.5512 31.6943H14.7415V53.48H12.3652V42.5648Z" fill="white"/>
<path d="M37.7338 53.5024L35.9296 47.2844H28.3828L26.5787 53.5024H23.9164L30.4951 31.7168H33.8834L40.4621 53.5024H37.7338ZM32.2992 34.4903H32.0132L28.9989 45.0029H35.2915L32.2992 34.4903Z" fill="white"/>
<path d="M52.8713 53.5024H50.297V31.7168H58.0858C60.066 31.7168 61.5842 32.276 62.6403 33.372C63.6744 34.468 64.2024 36.0113 64.2024 38.002C64.2024 39.769 63.7624 41.1781 62.8603 42.2517C61.9582 43.303 60.6601 43.9293 58.9219 44.0859L64.3784 53.5024H61.4961L56.2816 44.1977H52.8713V53.5024ZM58.0198 41.9833C59.0979 41.9833 59.956 41.7149 60.5501 41.1558C61.1441 40.5966 61.4521 39.8137 61.4521 38.8072V37.1744C61.4521 36.1455 61.1441 35.3626 60.5501 34.8258C59.956 34.2667 59.0979 33.9983 58.0198 33.9983H52.8713V41.9833H58.0198Z" fill="white"/>
<path d="M82.0022 53.8601C79.3839 53.8601 77.4257 52.8983 76.1496 50.9524C74.8735 49.0064 74.2354 46.2329 74.2354 42.587C74.2354 38.9412 74.8735 36.1453 76.1496 34.2217C77.4257 32.2758 79.3839 31.314 82.0022 31.314C82.9923 31.314 83.8284 31.4482 84.5544 31.7166C85.2805 31.985 85.8746 32.3429 86.4026 32.8126C86.9087 33.2599 87.3487 33.7967 87.7008 34.3559C88.0528 34.9375 88.3608 35.4966 88.6249 36.0782L86.4246 37.1071C86.2486 36.6374 86.0286 36.1676 85.7866 35.7427C85.5445 35.3177 85.2585 34.9375 84.9065 34.6243C84.5764 34.3112 84.1804 34.0428 83.7184 33.8638C83.2563 33.6849 82.7063 33.5731 82.0462 33.5731C80.352 33.5731 79.0759 34.2217 78.2618 35.5414C77.4257 36.861 77.0077 38.6057 77.0077 40.7753V44.3317C77.0077 46.5237 77.4257 48.2683 78.2618 49.5656C79.0979 50.8853 80.352 51.5339 82.0462 51.5339C82.7063 51.5339 83.2563 51.4444 83.7184 51.2431C84.1804 51.0642 84.5764 50.7958 84.9065 50.4826C85.2365 50.1695 85.5445 49.7893 85.7866 49.3643C86.0286 48.9393 86.2486 48.492 86.4246 47.9999L88.6249 49.0288C88.3608 49.6327 88.0528 50.2142 87.7008 50.7734C87.3487 51.3326 86.9307 51.847 86.4026 52.2944C85.8966 52.7417 85.2805 53.122 84.5544 53.3904C83.8284 53.7259 82.9923 53.8601 82.0022 53.8601Z" fill="white"/>
<path d="M110.033 43.5937H101.672V53.48H99.0979V31.6943H101.672V41.3122H110.033V31.6943H112.607V53.48H110.033V43.5937Z" fill="white"/>
<path d="M123.806 53.5024V51.3999H129.153V33.7969H123.806V31.7168H137.074V33.7969H131.727V51.3999H137.074V53.5024H123.806Z" fill="white"/>
<path d="M156.282 33.9758V53.48H153.707V33.9758H146.557V31.6943H163.454V33.9758H156.282Z" fill="white"/>
<path d="M173.113 53.5024V31.7168H186.315V33.9983H175.688V41.3347H185.941V43.6161H175.688V51.221H186.315V53.5024H173.113Z" fill="white"/>
<path d="M198.592 53.5024V31.7168H201.166V51.221H211.331V53.5024H198.592Z" fill="white"/>
<path d="M223.168 53.5024V31.7168H225.743V51.221H235.908V53.5024H223.168Z" fill="white"/>
<path d="M246.623 53.5024V51.3999H251.969V33.7969H246.623V31.7168H259.89V33.7969H254.543V51.3999H259.89V53.5024H246.623Z" fill="white"/>
<path d="M7.61276 79.3588C6.24863 79.3588 5.28053 79.0457 4.70847 78.4194C4.13642 77.7931 3.87239 77.0326 3.87239 76.1156V75.2432C3.87239 74.3262 4.15842 73.5657 4.70847 72.9394C5.28053 72.3131 6.24863 72 7.61276 72C8.9769 72 9.945 72.3131 10.5171 72.9394C11.0891 73.5657 11.3531 74.3262 11.3531 75.2432V76.1156C11.3531 77.0326 11.0671 77.7931 10.5171 78.4194C9.945 79.0457 8.9769 79.3588 7.61276 79.3588Z" fill="white"/>
<path d="M7.61277 119.888C6.29263 119.888 5.17052 119.642 4.22443 119.128C3.27833 118.613 2.50826 117.875 1.89219 116.936C1.27613 115.974 0.836088 114.811 0.55006 113.402C0.264031 111.992 0.110016 110.427 0.110016 108.615C0.110016 106.848 0.242029 105.26 0.55006 103.851C0.836088 102.442 1.27613 101.256 1.89219 100.317C2.50826 99.3549 3.27833 98.6168 4.22443 98.1247C5.17052 97.6103 6.29263 97.3643 7.61277 97.3643C8.9329 97.3643 10.055 97.6103 11.0011 98.1247C11.9472 98.6392 12.7173 99.3773 13.3333 100.317C13.9494 101.279 14.3894 102.464 14.6755 103.851C14.9615 105.26 15.1155 106.848 15.1155 108.615C15.1155 110.404 14.9615 111.992 14.6755 113.402C14.3894 114.788 13.9494 115.974 13.3333 116.936C12.7173 117.897 11.9472 118.635 11.0011 119.128C10.055 119.62 8.9109 119.888 7.61277 119.888ZM7.61277 117.607C8.47085 117.607 9.19692 117.428 9.79098 117.092C10.385 116.757 10.8691 116.265 11.2651 115.638C11.6612 115.012 11.9252 114.251 12.1012 113.379C12.2772 112.484 12.3652 111.5 12.3652 110.404V106.848C12.3652 105.774 12.2772 104.768 12.1012 103.873C11.9252 102.978 11.6392 102.218 11.2651 101.592C10.8691 100.965 10.385 100.473 9.79098 100.138C9.19692 99.8023 8.47085 99.6233 7.61277 99.6233C6.75468 99.6233 6.02861 99.8023 5.43455 100.138C4.84049 100.473 4.35644 100.965 3.9604 101.592C3.56436 102.218 3.30033 102.978 3.12432 103.873C2.9483 104.768 2.86029 105.752 2.86029 106.848V110.404C2.86029 111.5 2.9483 112.507 3.12432 113.379C3.30033 114.274 3.58636 115.012 3.9604 115.638C4.35644 116.265 4.84049 116.757 5.43455 117.092C6.00661 117.428 6.73268 117.607 7.61277 117.607Z" fill="white"/>
<path d="M32.1012 119.888C30.187 119.888 28.6029 119.53 27.3707 118.792C26.1386 118.054 25.1265 117.137 24.3344 116.018L26.2046 114.453C27.0407 115.504 27.9208 116.309 28.8669 116.824C29.791 117.338 30.9131 117.606 32.1892 117.606C33.7514 117.606 34.9395 117.249 35.7536 116.51C36.5677 115.795 36.9857 114.766 36.9857 113.469C36.9857 112.417 36.6997 111.59 36.1056 111.008C35.5115 110.427 34.4774 110.002 33.0033 109.756L30.6051 109.353C29.571 109.174 28.6909 108.883 27.9868 108.503C27.2827 108.123 26.7107 107.675 26.2926 107.139C25.8526 106.602 25.5666 106.02 25.3685 105.394C25.1925 104.768 25.0825 104.097 25.0825 103.403C25.0825 101.413 25.7206 99.8917 27.0187 98.8628C28.3168 97.8339 30.055 97.3418 32.2332 97.3418C33.9494 97.3418 35.4015 97.6326 36.5677 98.2365C37.7338 98.818 38.7019 99.6456 39.4059 100.719L37.6018 102.307C37.0077 101.524 36.2816 100.876 35.4455 100.361C34.6095 99.8693 33.5313 99.6232 32.1892 99.6232C30.7371 99.6232 29.615 99.9364 28.8449 100.563C28.0748 101.189 27.6788 102.106 27.6788 103.359C27.6788 104.32 27.9648 105.126 28.5589 105.729C29.1529 106.333 30.187 106.781 31.7052 107.049L34.0154 107.452C35.0495 107.631 35.9296 107.921 36.6557 108.302C37.3817 108.682 37.9538 109.129 38.3938 109.644C38.8339 110.158 39.1419 110.74 39.3399 111.388C39.5159 112.037 39.626 112.708 39.626 113.424C39.626 115.437 38.9659 117.025 37.6678 118.166C36.3476 119.306 34.4994 119.888 32.1012 119.888Z" fill="white"/>
<path d="M58.0198 100.004V119.508H55.4455V100.004H48.2948V97.7222H65.1925V100.004H58.0198Z" fill="white"/>
<path d="M74.8515 119.508V97.7222H88.0528V100.004H77.4258V107.34H87.6788V109.599H77.4258V117.226H88.0528V119.508H74.8515Z" fill="white"/>
<path d="M105.853 119.888C104.532 119.888 103.41 119.642 102.464 119.128C101.518 118.613 100.748 117.875 100.132 116.936C99.516 115.974 99.0759 114.811 98.7899 113.402C98.5039 112.015 98.3499 110.427 98.3499 108.615C98.3499 106.848 98.4819 105.26 98.7899 103.851C99.0759 102.442 99.516 101.256 100.132 100.317C100.748 99.3549 101.518 98.6168 102.464 98.1247C103.41 97.6103 104.532 97.3643 105.853 97.3643C107.173 97.3643 108.295 97.6103 109.241 98.1247C110.187 98.6392 110.957 99.3773 111.573 100.317C112.189 101.279 112.629 102.464 112.915 103.851C113.201 105.26 113.355 106.848 113.355 108.615C113.355 110.404 113.201 111.992 112.915 113.402C112.629 114.788 112.189 115.974 111.573 116.936C110.957 117.897 110.187 118.635 109.241 119.128C108.295 119.62 107.173 119.888 105.853 119.888ZM105.853 117.607C106.711 117.607 107.437 117.428 108.031 117.092C108.625 116.757 109.109 116.265 109.505 115.638C109.901 115.012 110.165 114.251 110.341 113.379C110.517 112.484 110.605 111.5 110.605 110.404V106.848C110.605 105.774 110.517 104.768 110.341 103.873C110.165 102.978 109.879 102.218 109.505 101.592C109.109 100.965 108.625 100.473 108.031 100.138C107.437 99.8023 106.711 99.6233 105.853 99.6233C104.995 99.6233 104.268 99.8023 103.674 100.138C103.08 100.473 102.596 100.965 102.2 101.592C101.804 102.218 101.54 102.978 101.364 103.873C101.188 104.768 101.1 105.752 101.1 106.848V110.404C101.1 111.5 101.188 112.507 101.364 113.379C101.54 114.274 101.826 115.012 102.2 115.638C102.596 116.265 103.08 116.757 103.674 117.092C104.268 117.428 104.995 117.607 105.853 117.607Z" fill="white"/>
<path d="M123.982 119.508V97.7222H131.771C133.751 97.7222 135.27 98.2813 136.326 99.3773C137.36 100.473 137.888 102.017 137.888 104.007C137.888 105.976 137.36 107.519 136.326 108.637C135.292 109.733 133.773 110.293 131.771 110.293H126.557V119.53H123.982V119.508ZM126.557 107.989H131.705C132.783 107.989 133.641 107.72 134.235 107.161C134.829 106.602 135.138 105.819 135.138 104.813V103.18C135.138 102.151 134.829 101.368 134.235 100.831C133.641 100.272 132.783 100.004 131.705 100.004H126.557V107.989Z" fill="white"/>
<path d="M160.55 119.508L158.746 113.29H151.221L149.417 119.508H146.755L153.333 97.7222H156.744L163.322 119.508H160.55ZM155.116 100.496H154.83L151.815 111.008H158.108L155.116 100.496Z" fill="white"/>
<path d="M180.858 100.004V119.508H178.284V100.004H171.133V97.7222H188.031V100.004H180.858Z" fill="white"/>
<path d="M209.681 119.508L207.877 113.29H200.352L198.548 119.508H195.886L202.464 97.7222H205.875L212.453 119.508H209.681ZM204.246 100.496H203.96L200.946 111.008H207.261L204.246 100.496Z" fill="white"/>
</g>
<defs>
<clipPath id="clip0_75_306">
<rect width="260" height="120" fill="white"/>
</clipPath>
</defs>
</svg>
