<svg width="185" height="120" viewBox="0 0 185 120" fill="none" xmlns="http://www.w3.org/2000/svg">
<g clip-path="url(#clip0_75_364)">
<path d="M185 0H0V120H185V0Z" fill="white"/>
<path d="M110.169 80.4453C106.522 78.4755 101.374 76.4055 97.1795 76.2552C95.4304 76.1885 93.3166 76.1885 91.5674 76.1885C89.7023 76.1885 89.7023 76.1885 89.7023 78.3169C89.7023 80.4453 89.7023 80.4453 91.5674 80.4453H110.169Z" fill="#1B1464"/>
<path d="M110.169 84.6934C106.522 86.6632 101.374 88.7331 97.1795 88.8834C95.4304 88.9502 93.3166 88.9502 91.5674 88.9502C89.7023 88.9502 89.7023 88.9502 89.7023 86.8218C89.7023 84.6934 89.7023 84.6934 91.5674 84.6934H110.169Z" fill="#1B1464"/>
<path d="M133.704 84.6934C137.351 86.6632 142.499 88.7331 146.694 88.8834C148.443 88.9502 150.557 88.9502 152.306 88.9502C154.171 88.9502 154.171 88.9502 154.171 86.8218C154.171 84.6934 154.171 84.6934 152.306 84.6934H133.704Z" fill="#1B1464"/>
<path d="M133.704 80.4453C137.351 78.4755 142.499 76.4055 146.694 76.2552C148.443 76.1885 150.557 76.1885 152.306 76.1885C154.171 76.1885 154.171 76.1885 154.171 78.3169C154.171 80.4453 154.171 80.4453 152.306 80.4453H133.704Z" fill="#1B1464"/>
<path d="M116.486 50.7809C114.778 49.7459 113.071 48.6859 111.438 47.534C106.696 44.187 102.825 42.9434 96.1185 42.9434C94.9248 42.9434 92.3881 42.9434 91.5757 42.9434C89.7106 42.9434 89.7106 42.9434 89.7106 46.5658C89.7106 50.1883 89.7106 50.1883 91.5757 50.1883C100.446 50.1883 107.94 51.265 114.24 56.0226C116.818 57.9674 119.379 58.9439 121.941 58.9606V52.4586C120.117 52.4419 118.293 51.8743 116.486 50.7809Z" fill="#1B1464"/>
<path d="M91.5674 60.9472C101.697 60.9472 108.893 62.6583 115.947 67.7247C117.92 69.1437 119.926 69.8364 121.932 69.8448V64.0772C119.711 64.0522 117.489 63.3177 115.276 61.8904C114.157 61.1726 113.021 60.4631 111.918 59.7119C106.795 56.2397 101.921 54.6455 94.8253 54.6455H91.5757C89.7105 54.6455 89.7105 54.6455 89.7105 57.7922C89.7022 60.9472 89.7022 60.9472 91.5674 60.9472Z" fill="#1B1464"/>
<path d="M91.5092 39.5465C93.3412 39.5548 95.1732 39.6133 97.0053 39.5381C102.617 39.3128 107.691 40.8653 112.291 44.0704C113.593 44.9718 114.961 45.7814 116.279 46.6662C117.995 47.818 119.885 48.2437 121.941 48.3439V40.9404C120.506 40.9237 119.064 40.4813 117.638 39.6299C115.632 38.4364 113.634 37.2094 111.769 35.8072C107.019 32.2431 106.489 31.0245 91.5175 31.0245C89.6523 31.0245 89.7104 30.8743 89.7104 35.298C89.7021 39.5548 89.7021 39.5381 91.5092 39.5465Z" fill="#1B1464"/>
<path d="M152.306 66.3394C144.372 66.3394 137.459 67.8334 131.242 72.0735C130.28 72.7329 129.269 73.3255 128.282 73.9599C126.168 75.3037 124.046 75.9964 121.932 76.0298C119.819 76.0048 117.696 75.312 115.583 73.9599C114.596 73.3339 113.593 72.7329 112.623 72.0735C106.406 67.8334 99.4923 66.3394 91.5591 66.3394C89.694 66.3394 89.694 66.3394 89.694 69.0019C89.694 71.6645 89.694 71.6645 91.5591 71.6645C103.737 71.6645 109.183 74.4356 117.033 79.0096C118.658 79.9528 120.291 80.4202 121.924 80.4369C123.565 80.4202 125.199 79.9528 126.815 79.0096C134.665 74.4356 140.112 71.6645 152.289 71.6645C154.154 71.6645 154.154 71.6645 154.154 69.0019C154.154 66.3394 154.163 66.3394 152.306 66.3394Z" fill="#1B1464"/>
<path d="M152.364 31.0245C137.393 31.0245 136.862 32.2431 132.112 35.8072C130.247 37.2094 128.249 38.4364 126.243 39.6299C124.817 40.4813 123.375 40.9153 121.941 40.9404V48.3439C123.988 48.2354 125.878 47.818 127.603 46.6662C128.921 45.7814 130.288 44.9802 131.59 44.0704C136.199 40.8653 141.264 39.3128 146.876 39.5381C148.708 39.6133 150.54 39.5548 152.372 39.5465C154.179 39.5381 154.179 39.5548 154.179 35.298C154.171 30.8743 154.229 31.0245 152.364 31.0245Z" fill="#1B1464"/>
<path d="M152.306 54.6538H149.048C141.952 54.6538 137.078 56.248 131.955 59.7202C130.852 60.4714 129.716 61.1726 128.597 61.8987C126.376 63.326 124.154 64.0605 121.941 64.0855V69.8531C123.947 69.8447 125.953 69.152 127.926 67.733C134.98 62.6666 142.176 60.9555 152.306 60.9555C154.171 60.9555 154.171 60.9555 154.171 57.8088C154.163 54.6538 154.163 54.6538 152.306 54.6538Z" fill="#1B1464"/>
<path d="M152.306 42.9434C151.493 42.9434 148.957 42.9434 147.763 42.9434C141.057 42.9434 137.185 44.187 132.444 47.534C130.811 48.6859 129.103 49.7459 127.395 50.7809C125.58 51.8826 123.764 52.4419 121.941 52.4669V58.969C124.502 58.9523 127.064 57.9757 129.642 56.0309C135.942 51.2733 143.436 50.1966 152.306 50.1966C154.171 50.1966 154.171 50.1966 154.171 46.5742C154.163 42.9434 154.163 42.9434 152.306 42.9434Z" fill="#1B1464"/>
<path d="M74.6234 70.5625C72.8743 73.8427 71.0423 78.4584 70.9097 82.2311C70.8516 83.8003 70.8516 85.7033 70.8516 87.2725C70.8516 88.9502 70.8516 88.9502 72.7334 88.9502C74.6151 88.9502 74.6151 88.9502 74.6151 87.2725L74.6234 70.5625Z" fill="#FBB03B"/>
<path d="M78.3952 70.5625C80.1443 73.8427 81.9763 78.4584 82.109 82.2311C82.167 83.8003 82.167 85.7033 82.167 87.2725C82.167 88.9502 82.167 88.9502 80.2852 88.9502C78.4035 88.9502 78.4035 88.9502 78.4035 87.2725L78.3952 70.5625Z" fill="#FBB03B"/>
<path d="M78.3952 49.4204C80.1443 46.1402 81.9763 41.5245 82.109 37.7518C82.167 36.1826 82.167 34.2796 82.167 32.7104C82.167 31.0327 82.167 31.0327 80.2852 31.0327C78.4035 31.0327 78.4035 31.0327 78.4035 32.7104L78.3952 49.4204Z" fill="#FBB03B"/>
<path d="M74.6234 49.4204C72.8743 46.1402 71.0423 41.5245 70.9097 37.7518C70.8516 36.1826 70.8516 34.2796 70.8516 32.7104C70.8516 31.0327 70.8516 31.0327 72.7334 31.0327C74.6151 31.0327 74.6151 31.0327 74.6151 32.7104L74.6234 49.4204Z" fill="#FBB03B"/>
<path d="M48.3369 64.8868C47.4168 66.4225 46.4801 67.9583 45.4604 69.4273C42.4927 73.6841 41.3985 77.1647 41.3985 83.191C41.3985 84.2594 41.3985 86.5463 41.3985 87.2725C41.3985 88.9502 41.3985 88.9502 44.6149 88.9502C47.8313 88.9502 47.8313 88.9502 47.8313 87.2725C47.8313 79.3014 48.7846 72.5657 52.9957 66.915C54.72 64.5946 55.5821 62.2993 55.5987 59.9956H49.8374C49.8125 61.6316 49.3151 63.2592 48.3369 64.8868Z" fill="#FBB03B"/>
<path d="M57.3477 87.2725C57.3477 78.1746 58.8647 71.706 63.3577 65.3709C64.6178 63.593 65.2312 61.7985 65.2395 59.9956H60.1331C60.1082 61.9905 59.4533 63.9853 58.1933 65.9802C57.555 66.9901 56.925 68.0084 56.2618 69.0017C53.1863 73.6007 51.7771 77.9827 51.7771 84.3595V87.2808C51.7771 88.9585 51.7771 88.9585 54.5624 88.9585C57.3477 88.9502 57.3477 88.9502 57.3477 87.2725Z" fill="#FBB03B"/>
<path d="M38.3811 87.3309C38.3894 85.6866 38.4391 84.034 38.3728 82.3897C38.1738 77.3483 39.5499 72.791 42.3933 68.6594C43.1973 67.4909 43.9103 66.264 44.6895 65.0787C45.7091 63.5346 46.0821 61.8402 46.1733 59.9956H39.6079C39.5914 61.2893 39.2017 62.5747 38.4474 63.8601C37.3863 65.663 36.3004 67.4575 35.0569 69.1352C31.8986 73.4003 30.8209 73.8761 30.8209 87.3309C30.8209 89.0086 30.6883 88.9502 34.601 88.9502C38.3976 88.9502 38.3811 88.9502 38.3811 87.3309Z" fill="#FBB03B"/>
<path d="M62.1309 32.7104C62.1309 39.8384 63.4573 46.0484 67.2125 51.6323C67.7927 52.5003 68.3233 53.4018 68.8787 54.2865C70.0724 56.1812 70.6858 58.0926 70.7107 59.9873C70.6858 61.882 70.0724 63.7934 68.8787 65.6881C68.3233 66.5728 67.7927 67.4743 67.2125 68.3423C63.4573 73.9262 62.1309 80.1445 62.1309 87.2642C62.1309 88.9419 62.1309 88.9419 64.4852 88.9419C66.8394 88.9419 66.8394 88.9419 66.8394 87.2642C66.8394 76.3301 69.2932 71.4306 73.3468 64.3776C74.1841 62.917 74.5985 61.448 74.6151 59.979C74.5985 58.5099 74.1841 57.0409 73.3468 55.5803C69.3015 48.544 66.8477 43.6529 66.8477 32.7104C66.8477 31.0327 66.8477 31.0327 64.4935 31.0327C62.1392 31.0327 62.1309 31.0411 62.1309 32.7104Z" fill="#FBB03B"/>
<path d="M30.8375 32.6603C30.8375 46.1151 31.9151 46.5909 35.0735 50.856C36.3169 52.5337 37.4029 54.3283 38.464 56.1311C39.2183 57.4165 39.6079 58.7102 39.6245 59.9956H46.1899C46.0987 58.151 45.7257 56.4567 44.7061 54.9125C43.9185 53.7273 43.2139 52.5003 42.4098 51.3318C39.5748 47.1919 38.1904 42.6429 38.3893 37.6015C38.4557 35.9572 38.3976 34.3129 38.3976 32.6603C38.3893 31.0411 38.4059 31.0411 34.6341 31.0411C30.6966 31.0327 30.8375 30.9826 30.8375 32.6603Z" fill="#FBB03B"/>
<path d="M51.7771 32.7103V35.6317C51.7771 42.0085 53.1946 46.3905 56.2618 50.9895C56.925 51.9828 57.555 53.0011 58.1933 54.011C59.4533 56.0059 60.1082 58.0007 60.1331 59.9956H65.2395C65.2312 58.1927 64.6178 56.3898 63.3577 54.6203C58.8647 48.2852 57.3477 41.8166 57.3477 32.7187C57.3477 31.041 57.3477 31.041 54.5624 31.041C51.7771 31.041 51.7771 31.041 51.7771 32.7103Z" fill="#FBB03B"/>
<path d="M41.3902 32.7103C41.3902 33.4449 41.3902 35.7235 41.3902 36.7919C41.3902 42.8182 42.4927 46.2987 45.4521 50.5555C46.4718 52.0245 47.4085 53.552 48.3286 55.0961C49.3068 56.7237 49.8042 58.3597 49.8208 59.9956H55.5821C55.5655 57.6919 54.7034 55.3966 52.9791 53.0762C48.7597 47.4172 47.8147 40.6814 47.8147 32.7187C47.8147 31.041 47.8147 31.041 44.5983 31.041C41.3902 31.041 41.3902 31.041 41.3902 32.7103Z" fill="#FBB03B"/>
</g>
<defs>
<clipPath id="clip0_75_364">
<rect width="185" height="120" fill="white"/>
</clipPath>
</defs>
</svg>
