<svg width="224" height="48" viewBox="0 0 224 48" fill="none" xmlns="http://www.w3.org/2000/svg">
<g clip-path="url(#clip0_73_2)">
<path d="M120.458 8.91109V0.196832H125.738V1.10941H121.496V4.04399H125.597V4.95657H121.496V8.00746H125.747V8.92004H120.458V8.91109Z" fill="white"/>
<path d="M130.35 0.196832H132.744C133.791 0.196832 134.574 0.563654 135.094 1.2973C135.613 2.03094 135.868 3.11351 135.868 4.55396C135.868 5.99441 135.613 7.07698 135.094 7.81063C134.574 8.54427 133.8 8.91109 132.744 8.91109H130.35V0.196832ZM132.691 7.99851C133.377 7.99851 133.897 7.75694 134.249 7.27381C134.601 6.79068 134.768 6.11072 134.768 5.22498V3.874C134.768 2.98826 134.592 2.3083 134.249 1.82516C133.897 1.34203 133.386 1.10047 132.691 1.10047H131.38V7.98956H132.691V7.99851Z" fill="white"/>
<path d="M142.697 9.06319C142.169 9.06319 141.721 8.96477 141.342 8.75899C140.964 8.55322 140.656 8.25797 140.409 7.8822C140.163 7.49748 139.987 7.03225 139.872 6.46859C139.758 5.90494 139.696 5.27866 139.696 4.55396C139.696 3.84716 139.749 3.21193 139.872 2.64828C139.987 2.08462 140.163 1.61044 140.409 1.23467C140.656 0.849953 140.964 0.554707 141.342 0.357875C141.721 0.152097 142.169 0.0536814 142.697 0.0536814C143.226 0.0536814 143.674 0.152097 144.053 0.357875C144.431 0.563653 144.739 0.8589 144.986 1.23467C145.232 1.61939 145.408 2.09357 145.523 2.64828C145.637 3.21193 145.699 3.84716 145.699 4.55396C145.699 5.26971 145.637 5.90494 145.523 6.46859C145.408 7.0233 145.232 7.49748 144.986 7.8822C144.739 8.26692 144.431 8.56216 144.053 8.75899C143.666 8.95582 143.217 9.06319 142.697 9.06319ZM142.697 8.15061C143.041 8.15061 143.331 8.07903 143.569 7.94483C143.806 7.81062 144 7.61379 144.158 7.36328C144.317 7.11277 144.422 6.80857 144.493 6.45965C144.563 6.10177 144.598 5.70811 144.598 5.26971V3.83821C144.598 3.40876 144.563 3.00615 144.493 2.64828C144.422 2.2904 144.308 1.98621 144.158 1.73569C144 1.48518 143.806 1.28835 143.569 1.15415C143.331 1.01994 143.041 0.948369 142.697 0.948369C142.354 0.948369 142.064 1.01994 141.826 1.15415C141.589 1.28835 141.395 1.48518 141.237 1.73569C141.078 1.98621 140.972 2.2904 140.902 2.64828C140.832 3.00615 140.796 3.39981 140.796 3.83821V5.26076C140.796 5.69916 140.832 6.10177 140.902 6.4507C140.972 6.80857 141.087 7.10382 141.237 7.35433C141.395 7.60485 141.589 7.80168 141.826 7.93588C142.055 8.07903 142.345 8.15061 142.697 8.15061Z" fill="white"/>
<path d="M154.746 8.91109L154.024 6.42386H151.014L150.293 8.91109H149.219L151.85 0.196832H153.215L155.846 8.91109H154.746ZM152.572 1.30624H152.458L151.252 5.51128H153.769L152.572 1.30624Z" fill="white"/>
<path d="M160.801 8.91109H159.771V0.196832H162.887C163.679 0.196832 164.286 0.420504 164.708 0.858901C165.122 1.2973 165.333 1.91463 165.333 2.7109C165.333 3.41771 165.157 3.98136 164.796 4.41081C164.436 4.83131 163.916 5.08183 163.221 5.14446L165.404 8.91109H164.251L162.165 5.18919H160.801V8.91109ZM162.86 4.30345C163.292 4.30345 163.635 4.19609 163.872 3.97241C164.11 3.74874 164.233 3.4356 164.233 3.03299V2.37987C164.233 1.96831 164.11 1.65517 163.872 1.44045C163.635 1.21678 163.292 1.10941 162.86 1.10941H160.801V4.30345H162.86Z" fill="white"/>
<path d="M169.655 0.196832H172.048C173.096 0.196832 173.879 0.563654 174.398 1.2973C174.917 2.03094 175.173 3.11351 175.173 4.55396C175.173 5.99441 174.917 7.07698 174.398 7.81063C173.879 8.54427 173.105 8.91109 172.048 8.91109H169.655V0.196832ZM171.996 7.99851C172.682 7.99851 173.201 7.75694 173.553 7.27381C173.905 6.79068 174.073 6.11072 174.073 5.22498V3.874C174.073 2.98826 173.897 2.3083 173.553 1.82516C173.201 1.34203 172.691 1.10047 171.996 1.10047H170.684V7.98956H171.996V7.99851Z" fill="white"/>
<path d="M181.993 9.06319C181.465 9.06319 181.016 8.96477 180.638 8.75899C180.26 8.55322 179.952 8.25797 179.705 7.8822C179.459 7.49748 179.283 7.03225 179.168 6.46859C179.054 5.90494 178.992 5.27866 178.992 4.55396C178.992 3.84716 179.045 3.21193 179.168 2.64828C179.283 2.08462 179.459 1.61044 179.705 1.23467C179.952 0.849953 180.26 0.554707 180.638 0.357875C181.016 0.152097 181.465 0.0536814 181.993 0.0536814C182.521 0.0536814 182.97 0.152097 183.349 0.357875C183.727 0.563653 184.035 0.8589 184.282 1.23467C184.528 1.61939 184.704 2.09357 184.818 2.64828C184.933 3.21193 184.994 3.84716 184.994 4.55396C184.994 5.26971 184.933 5.90494 184.818 6.46859C184.704 7.0233 184.528 7.49748 184.282 7.8822C184.035 8.26692 183.727 8.56216 183.349 8.75899C182.97 8.95582 182.521 9.06319 181.993 9.06319ZM181.993 8.15061C182.337 8.15061 182.627 8.07903 182.865 7.94483C183.102 7.81062 183.296 7.61379 183.454 7.36328C183.613 7.11277 183.718 6.80857 183.789 6.45965C183.859 6.10177 183.894 5.70811 183.894 5.26971V3.83821C183.894 3.40876 183.859 3.00615 183.789 2.64828C183.718 2.2904 183.604 1.98621 183.454 1.73569C183.296 1.48518 183.102 1.28835 182.865 1.15415C182.627 1.01994 182.337 0.948369 181.993 0.948369C181.65 0.948369 181.36 1.01994 181.122 1.15415C180.884 1.28835 180.691 1.48518 180.532 1.73569C180.374 1.98621 180.268 2.2904 180.198 2.64828C180.128 3.00615 180.092 3.39981 180.092 3.83821V5.26076C180.092 5.69916 180.128 6.10177 180.198 6.4507C180.268 6.80857 180.383 7.10382 180.532 7.35433C180.691 7.60485 180.884 7.80168 181.122 7.93588C181.36 8.07903 181.65 8.15061 181.993 8.15061Z" fill="white"/>
<path d="M124.946 17.0259V14.2703H124.849L123.045 18.7527L121.232 14.2703H121.135V17.0259V21.392H120.194V12.6777H121.523L123.036 16.5249H123.107L124.62 12.6777H125.897V21.392H124.946V17.0259Z" fill="white"/>
<path d="M135.094 21.4009L134.372 18.9137H131.353L130.631 21.4009H129.567L132.198 12.6867H133.553L136.185 21.4009H135.094ZM132.92 13.7961H132.805L131.6 18.0011H134.117L132.92 13.7961Z" fill="white"/>
<path d="M141.149 21.4009H140.119V12.6867H143.234C144.026 12.6867 144.634 12.9103 145.056 13.3487C145.47 13.7871 145.681 14.4045 145.681 15.2007C145.681 15.9075 145.505 16.4712 145.144 16.9007C144.783 17.3212 144.264 17.5717 143.569 17.6343L145.751 21.4009H144.598L142.513 17.679H141.149V21.4009ZM143.208 16.7933C143.639 16.7933 143.982 16.6859 144.22 16.4623C144.458 16.2386 144.581 15.9254 144.581 15.5228V14.8697C144.581 14.4582 144.458 14.145 144.22 13.9303C143.982 13.7066 143.639 13.5993 143.208 13.5993H141.149V16.7933H143.208Z" fill="white"/>
<path d="M152.801 21.5441C151.754 21.5441 150.97 21.1594 150.46 20.381C149.949 19.6026 149.694 18.4932 149.694 17.0349C149.694 15.5765 149.949 14.4582 150.46 13.6887C150.97 12.9103 151.754 12.5256 152.801 12.5256C153.197 12.5256 153.531 12.5793 153.822 12.6867C154.112 12.794 154.35 12.9372 154.561 13.1251C154.763 13.304 154.939 13.5187 155.08 13.7424C155.221 13.975 155.344 14.1987 155.45 14.4313L154.57 14.8429C154.499 14.655 154.411 14.4671 154.315 14.2971C154.218 14.1271 154.103 13.975 153.963 13.8498C153.831 13.7245 153.672 13.6171 153.487 13.5456C153.303 13.474 153.083 13.4293 152.818 13.4293C152.141 13.4293 151.63 13.6887 151.305 14.2166C150.97 14.7445 150.803 15.4423 150.803 16.3102V17.7327C150.803 18.6095 150.97 19.3074 151.305 19.8263C151.639 20.3541 152.141 20.6136 152.818 20.6136C153.083 20.6136 153.303 20.5778 153.487 20.4973C153.672 20.4257 153.831 20.3184 153.963 20.1931C154.095 20.0678 154.218 19.9158 154.315 19.7458C154.411 19.5758 154.499 19.3968 154.57 19.2L155.45 19.6116C155.344 19.8531 155.221 20.0857 155.08 20.3094C154.939 20.5331 154.772 20.7389 154.561 20.9178C154.359 21.0967 154.112 21.2488 153.822 21.3562C153.531 21.4904 153.197 21.5441 152.801 21.5441Z" fill="white"/>
<path d="M164.013 17.4375H160.669V21.392H159.639V12.6777H160.669V16.5249H164.013V12.6777H165.043V21.392H164.013V17.4375Z" fill="white"/>
<path d="M169.523 21.4009V20.5599H171.661V13.5187H169.523V12.6867H174.829V13.5187H172.691V20.5599H174.829V21.4009H169.523Z" fill="white"/>
<path d="M182.513 13.5903V21.392H181.483V13.5903H178.623V12.6777H185.382V13.5903H182.513Z" fill="white"/>
<path d="M189.245 21.4009V12.6867H194.526V13.5993H190.275V16.5338H194.376V17.4464H190.275V20.4883H194.526V21.4009H189.245Z" fill="white"/>
<path d="M199.437 21.4009V12.6867H200.466V20.4883H204.532V21.4009H199.437Z" fill="white"/>
<path d="M209.267 21.4009V12.6867H210.297V20.4883H214.363V21.4009H209.267Z" fill="white"/>
<path d="M218.649 21.4009V20.5599H220.788V13.5187H218.649V12.6867H223.956V13.5187H221.817V20.5599H223.956V21.4009H218.649Z" fill="white"/>
<path d="M123.045 31.7435C122.499 31.7435 122.112 31.6183 121.883 31.3678C121.655 31.1172 121.549 30.813 121.549 30.4462V30.0973C121.549 29.7305 121.663 29.4263 121.883 29.1758C122.112 28.9253 122.499 28.8 123.045 28.8C123.591 28.8 123.978 28.9253 124.207 29.1758C124.436 29.4263 124.541 29.7305 124.541 30.0973V30.4462C124.541 30.813 124.427 31.1172 124.207 31.3678C123.978 31.6183 123.591 31.7435 123.045 31.7435Z" fill="white"/>
<path d="M123.045 47.9553C122.517 47.9553 122.068 47.8568 121.69 47.6511C121.311 47.4453 121.003 47.15 120.757 46.7743C120.51 46.3896 120.334 45.9243 120.22 45.3607C120.106 44.797 120.044 44.1707 120.044 43.446C120.044 42.7392 120.097 42.104 120.22 41.5404C120.334 40.9767 120.51 40.5025 120.757 40.1267C121.003 39.742 121.311 39.4468 121.69 39.25C122.068 39.0442 122.517 38.9458 123.045 38.9458C123.573 38.9458 124.022 39.0442 124.4 39.25C124.779 39.4557 125.087 39.751 125.333 40.1267C125.58 40.5115 125.756 40.9856 125.87 41.5404C125.985 42.104 126.046 42.7392 126.046 43.446C126.046 44.1618 125.985 44.797 125.87 45.3607C125.756 45.9154 125.58 46.3896 125.333 46.7743C125.087 47.159 124.779 47.4542 124.4 47.6511C124.022 47.8479 123.564 47.9553 123.045 47.9553ZM123.045 47.0427C123.388 47.0427 123.679 46.9711 123.916 46.8369C124.154 46.7027 124.348 46.5059 124.506 46.2554C124.664 46.0048 124.77 45.7007 124.84 45.3517C124.911 44.9938 124.946 44.6002 124.946 44.1618V42.7392C124.946 42.3098 124.911 41.9072 124.84 41.5493C124.77 41.1914 124.656 40.8872 124.506 40.6367C124.348 40.3862 124.154 40.1894 123.916 40.0552C123.679 39.921 123.388 39.8494 123.045 39.8494C122.702 39.8494 122.411 39.921 122.174 40.0552C121.936 40.1894 121.743 40.3862 121.584 40.6367C121.426 40.8872 121.32 41.1914 121.25 41.5493C121.179 41.9072 121.144 42.3008 121.144 42.7392V44.1618C121.144 44.6002 121.179 45.0028 121.25 45.3517C121.32 45.7096 121.435 46.0048 121.584 46.2554C121.743 46.5059 121.936 46.7027 122.174 46.8369C122.403 46.9711 122.693 47.0427 123.045 47.0427Z" fill="white"/>
<path d="M132.84 47.9553C132.075 47.9553 131.441 47.8121 130.948 47.5169C130.455 47.2216 130.051 46.8548 129.734 46.4075L130.482 45.7812C130.816 46.2017 131.168 46.5238 131.547 46.7295C131.916 46.9353 132.365 47.0427 132.876 47.0427C133.501 47.0427 133.976 46.8995 134.301 46.6043C134.627 46.318 134.794 45.9064 134.794 45.3875C134.794 44.967 134.68 44.636 134.442 44.4034C134.205 44.1707 133.791 44.0007 133.201 43.9023L132.242 43.7413C131.828 43.6697 131.476 43.5534 131.195 43.4013C130.913 43.2492 130.684 43.0703 130.517 42.8555C130.341 42.6408 130.227 42.4082 130.147 42.1577C130.077 41.9072 130.033 41.6388 130.033 41.3614C130.033 40.5651 130.288 39.9568 130.807 39.5452C131.327 39.1336 132.022 38.9368 132.893 38.9368C133.58 38.9368 134.161 39.0531 134.627 39.2947C135.094 39.5273 135.481 39.8583 135.762 40.2878L135.041 40.923C134.803 40.6099 134.513 40.3504 134.178 40.1446C133.844 39.9478 133.413 39.8494 132.876 39.8494C132.295 39.8494 131.846 39.9747 131.538 40.2252C131.23 40.4757 131.072 40.8425 131.072 41.3435C131.072 41.7282 131.186 42.0503 131.424 42.2919C131.661 42.5335 132.075 42.7124 132.682 42.8198L133.606 42.9808C134.02 43.0524 134.372 43.1687 134.662 43.3208C134.953 43.4729 135.182 43.6518 135.358 43.8576C135.534 44.0634 135.657 44.296 135.736 44.5555C135.806 44.8149 135.85 45.0833 135.85 45.3696C135.85 46.1748 135.586 46.8101 135.067 47.2664C134.539 47.7226 133.8 47.9553 132.84 47.9553Z" fill="white"/>
<path d="M143.208 40.0015V47.8032H142.178V40.0015H139.318V39.0889H146.077V40.0015H143.208Z" fill="white"/>
<path d="M149.941 47.8032V39.0889H155.221V40.0015H150.97V42.9361H155.072V43.8397H150.97V46.8906H155.221V47.8032H149.941Z" fill="white"/>
<path d="M162.341 47.9553C161.813 47.9553 161.364 47.8568 160.986 47.6511C160.607 47.4453 160.299 47.15 160.053 46.7743C159.806 46.3896 159.63 45.9243 159.516 45.3607C159.402 44.806 159.34 44.1707 159.34 43.446C159.34 42.7392 159.393 42.104 159.516 41.5404C159.63 40.9767 159.806 40.5025 160.053 40.1267C160.299 39.742 160.607 39.4468 160.986 39.25C161.364 39.0442 161.813 38.9458 162.341 38.9458C162.869 38.9458 163.318 39.0442 163.696 39.25C164.075 39.4557 164.383 39.751 164.629 40.1267C164.876 40.5115 165.052 40.9856 165.166 41.5404C165.281 42.104 165.342 42.7392 165.342 43.446C165.342 44.1618 165.281 44.797 165.166 45.3607C165.052 45.9154 164.876 46.3896 164.629 46.7743C164.383 47.159 164.075 47.4542 163.696 47.6511C163.318 47.8479 162.869 47.9553 162.341 47.9553ZM162.341 47.0427C162.684 47.0427 162.975 46.9711 163.212 46.8369C163.45 46.7027 163.644 46.5059 163.802 46.2554C163.96 46.0048 164.066 45.7007 164.136 45.3517C164.207 44.9938 164.242 44.6002 164.242 44.1618V42.7392C164.242 42.3098 164.207 41.9072 164.136 41.5493C164.066 41.1914 163.952 40.8872 163.802 40.6367C163.644 40.3862 163.45 40.1894 163.212 40.0552C162.975 39.921 162.684 39.8494 162.341 39.8494C161.998 39.8494 161.707 39.921 161.47 40.0552C161.232 40.1894 161.039 40.3862 160.88 40.6367C160.722 40.8872 160.616 41.1914 160.546 41.5493C160.475 41.9072 160.44 42.3008 160.44 42.7392V44.1618C160.44 44.6002 160.475 45.0028 160.546 45.3517C160.616 45.7096 160.73 46.0048 160.88 46.2554C161.039 46.5059 161.232 46.7027 161.47 46.8369C161.707 46.9711 161.998 47.0427 162.341 47.0427Z" fill="white"/>
<path d="M169.593 47.8032V39.0889H172.708C173.501 39.0889 174.108 39.3126 174.53 39.751C174.944 40.1894 175.155 40.8067 175.155 41.603C175.155 42.3903 174.944 43.0076 174.53 43.455C174.117 43.8934 173.509 44.1171 172.708 44.1171H170.623V47.8121H169.593V47.8032ZM170.623 43.1955H172.682C173.113 43.1955 173.457 43.0882 173.694 42.8645C173.932 42.6408 174.055 42.3277 174.055 41.9251V41.2719C174.055 40.8604 173.932 40.5472 173.694 40.3325C173.457 40.1089 173.113 40.0015 172.682 40.0015H170.623V43.1955Z" fill="white"/>
<path d="M184.22 47.8032L183.498 45.3159H180.488L179.767 47.8032H178.702L181.333 39.0889H182.697L185.329 47.8032H184.22ZM182.046 40.1983H181.932L180.726 44.4034H183.243L182.046 40.1983Z" fill="white"/>
<path d="M192.343 40.0015V47.8032H191.314V40.0015H188.453V39.0889H195.212V40.0015H192.343Z" fill="white"/>
<path d="M203.872 47.8032L203.151 45.3159H200.141L199.419 47.8032H198.354L200.986 39.0889H202.35L204.981 47.8032H203.872ZM201.699 40.1983H201.584L200.378 44.4034H202.904L201.699 40.1983Z" fill="white"/>
</g>
<g clip-path="url(#clip1_73_2)">
<path d="M66.9031 40.9522C63.8274 39.3199 59.4865 37.6046 55.9495 37.4801C54.4745 37.4248 52.692 37.4248 51.2171 37.4248C49.6443 37.4248 49.6443 37.4248 49.6443 39.1885C49.6443 40.9522 49.6443 40.9522 51.2171 40.9522H66.9031Z" fill="white"/>
<path d="M66.9031 44.4726C63.8274 46.1049 59.4865 47.8202 55.9495 47.9447C54.4745 48 52.692 48 51.2171 48C49.6443 48 49.6443 48 49.6443 46.2363C49.6443 44.4726 49.6443 44.4726 51.2171 44.4726H66.9031Z" fill="white"/>
<path d="M86.7412 44.4726C89.8169 46.1049 94.1578 47.8202 97.6948 47.9447C99.1698 48 100.952 48 102.427 48C104 48 104 48 104 46.2363C104 44.4726 104 44.4726 102.427 44.4726H86.7412Z" fill="white"/>
<path d="M86.7412 40.9522C89.8169 39.3199 94.1578 37.6046 97.6948 37.4801C99.1698 37.4248 100.952 37.4248 102.427 37.4248C104 37.4248 104 37.4248 104 39.1885C104 40.9522 104 40.9522 102.427 40.9522H86.7412Z" fill="white"/>
<path d="M72.2226 16.3712C70.7826 15.5135 69.3427 14.6352 67.9656 13.6807C63.9672 10.9072 60.7028 9.87666 55.0477 9.87666C54.0411 9.87666 51.9021 9.87666 51.2171 9.87666C49.6443 9.87666 49.6443 9.87666 49.6443 12.8784C49.6443 15.8801 49.6443 15.8801 51.2171 15.8801C58.6966 15.8801 65.0157 16.7723 70.3283 20.7147C72.5022 22.3262 74.6622 23.1354 76.8222 23.1493V17.7614C75.2843 17.7475 73.7535 17.2772 72.2226 16.3712Z" fill="white"/>
<path d="M51.2171 24.7954C59.7591 24.7954 65.8266 26.2133 71.7752 30.4115C73.4389 31.5873 75.1305 32.1614 76.8222 32.1683V27.389C74.9488 27.3683 73.0754 26.7597 71.209 25.5769C70.2654 24.9821 69.3077 24.3942 68.378 23.7718C64.0581 20.8945 59.9478 19.5735 53.9642 19.5735H51.2241C49.6513 19.5735 49.6513 19.5735 49.6513 22.181C49.6443 24.7954 49.6443 24.7954 51.2171 24.7954Z" fill="white"/>
<path d="M51.1612 7.06167C52.706 7.06859 54.2508 7.117 55.7957 7.05476C60.528 6.86801 64.806 8.15447 68.6856 10.8104C69.783 11.5573 70.9364 12.2282 72.0479 12.9614C73.4948 13.9159 75.0886 14.2686 76.8222 14.3516V8.21671C75.6129 8.20288 74.3966 7.83631 73.1942 7.13084C71.5026 6.14179 69.818 5.12507 68.2452 3.96311C64.2398 1.0098 63.7855 1.06578e-07 51.1612 1.06578e-07C49.5884 1.06578e-07 49.6373 -0.124495 49.6373 3.54121C49.6443 7.06859 49.6373 7.05476 51.1612 7.06167Z" fill="white"/>
<path d="M102.427 29.2634C95.7376 29.2634 89.9078 30.5014 84.6651 34.015C83.8543 34.5614 83.0015 35.0525 82.1696 35.5781C80.3871 36.6916 78.5977 37.2657 76.8152 37.2934C75.0327 37.2726 73.2432 36.6986 71.4607 35.5781C70.6288 35.0594 69.783 34.5614 68.9652 34.015C63.7225 30.5014 57.8927 29.2634 51.2031 29.2634C49.6303 29.2634 49.6303 29.2634 49.6303 31.4697C49.6303 33.6761 49.6303 33.6761 51.2031 33.6761C61.4717 33.6761 66.0643 35.9723 72.684 39.7625C74.054 40.5441 75.4311 40.9314 76.8082 40.9452C78.1922 40.9314 79.5693 40.5441 80.9324 39.7625C87.5521 35.9723 92.1446 33.6761 102.413 33.6761C103.986 33.6761 103.986 33.6761 103.986 31.4697C103.986 29.2634 104 29.2634 102.427 29.2634Z" fill="white"/>
<path d="M102.476 1.06578e-07C89.8519 1.06578e-07 89.4045 1.0098 85.3991 3.96311C83.8263 5.12507 82.1417 6.14179 80.4501 7.13084C79.2477 7.83631 78.0315 8.19597 76.8222 8.21671V14.3516C78.5487 14.2617 80.1425 13.9159 81.5965 12.9614C82.7079 12.2282 83.8613 11.5643 84.9587 10.8104C88.8453 8.15447 93.1163 6.86801 97.8486 7.05476C99.3935 7.117 100.938 7.06859 102.483 7.06167C104.007 7.05476 104.007 7.06859 104.007 3.54121C104 -0.124495 104.049 1.06578e-07 102.476 1.06578e-07Z" fill="white"/>
<path d="M102.427 19.5804H99.6801C93.6965 19.5804 89.5862 20.9014 85.2663 23.7787C84.3366 24.4012 83.379 24.9821 82.4353 25.5839C80.5619 26.7666 78.6885 27.3752 76.8222 27.396V32.1752C78.5138 32.1683 80.2054 31.5942 81.8691 30.4184C87.8177 26.2202 93.8852 24.8023 102.427 24.8023C104 24.8023 104 24.8023 104 22.1948C104 19.5804 104 19.5804 102.427 19.5804Z" fill="white"/>
<path d="M102.427 9.87666C101.742 9.87666 99.6032 9.87666 98.5966 9.87666C92.9415 9.87666 89.6771 10.9072 85.6787 13.6807C84.3016 14.6352 82.8617 15.5135 81.4217 16.3712C79.8908 17.2841 78.36 17.7475 76.8222 17.7683V23.1562C78.9821 23.1424 81.1421 22.3331 83.316 20.7216C88.6286 16.7792 94.9477 15.887 102.427 15.887C104 15.887 104 15.887 104 12.8853C104 9.87666 104 9.87666 102.427 9.87666Z" fill="white"/>
<path d="M36.9292 32.7631C35.4542 35.4813 33.9094 39.3061 33.7976 42.4323C33.7486 43.7326 33.7486 45.3095 33.7486 46.6098C33.7486 48 33.7486 48 35.3354 48C36.9222 48 36.9222 48 36.9222 46.6098L36.9292 32.7631Z" fill="white"/>
<path d="M40.1027 32.7631C41.5776 35.4813 43.1225 39.3061 43.2343 42.4323C43.2832 43.7326 43.2832 45.3095 43.2832 46.6098C43.2832 48 43.2832 48 41.6965 48C40.1097 48 40.1097 48 40.1097 46.6098L40.1027 32.7631Z" fill="white"/>
<path d="M40.1027 15.2438C41.5776 12.5256 43.1225 8.70086 43.2343 5.57464C43.2832 4.27435 43.2832 2.69741 43.2832 1.39712C43.2832 0.006917 43.2832 0.006917 41.6965 0.006917C40.1097 0.006917 40.1097 0.006917 40.1097 1.39712L40.1027 15.2438Z" fill="white"/>
<path d="M36.9292 15.2438C35.4542 12.5256 33.9094 8.70086 33.7976 5.57464C33.7486 4.27435 33.7486 2.69741 33.7486 1.39712C33.7486 0.006917 33.7486 0.006917 35.3354 0.006917C36.9222 0.006917 36.9222 0.006917 36.9222 1.39712L36.9292 15.2438Z" fill="white"/>
<path d="M14.7633 28.0669C13.9874 29.3395 13.1975 30.6121 12.3377 31.8294C9.8352 35.3568 8.91249 38.2409 8.91249 43.2346C8.91249 44.1199 8.91249 46.015 8.91249 46.6167C8.91249 48.0069 8.91249 48.0069 11.6247 48.0069C14.3369 48.0069 14.3369 48.0069 14.3369 46.6167C14.3369 40.0115 15.1407 34.43 18.6918 29.7475C20.1457 27.8248 20.8727 25.9228 20.8867 24.0138H16.0285C16.0075 25.3625 15.5811 26.7112 14.7633 28.0669Z" fill="white"/>
<path d="M22.3616 46.6098C22.3616 39.0709 23.6408 33.7107 27.4295 28.4611C28.492 26.9879 29.0093 25.5009 29.0163 24.0069H24.7103C24.6893 25.6599 24.1371 27.313 23.0746 28.966C22.5364 29.8029 22.0051 30.6467 21.4459 31.4697C18.8525 35.2807 17.6642 38.9118 17.6642 44.196V46.6167C17.6642 48.0069 17.6642 48.0069 20.0129 48.0069C22.3616 48 22.3616 48 22.3616 46.6098Z" fill="white"/>
<path d="M6.36806 46.6582C6.37505 45.2957 6.41699 43.9262 6.36107 42.5637C6.19331 38.3862 7.35368 34.6098 9.75131 31.1862C10.4294 30.2179 11.0305 29.2012 11.6876 28.219C12.5474 26.9395 12.8619 25.5355 12.9388 24.0069H7.40261C7.38863 25.079 7.06009 26.1441 6.42398 27.2092C5.52924 28.7032 4.61352 30.1902 3.565 31.5804C0.908725 35.1147 8.54197e-07 35.5089 8.54197e-07 46.6582C8.54197e-07 48.0415 -0.111842 48 3.19452 48C6.37505 48 6.36107 48 6.36806 46.6582Z" fill="white"/>
<path d="M26.388 1.39712C26.388 7.30375 27.5064 12.4496 30.6729 17.0767C31.1623 17.796 31.6096 18.5429 32.078 19.2761C33.0846 20.8461 33.6018 22.43 33.6228 24C33.6018 25.57 33.0846 27.1539 32.078 28.7239C31.6096 29.4571 31.1623 30.204 30.6729 30.9233C27.5064 35.5504 26.388 40.7032 26.388 46.6029C26.388 47.9931 26.388 47.9931 28.3732 47.9931C30.3584 47.9931 30.3584 47.9931 30.3584 46.6029C30.3584 37.5424 32.4275 33.4824 35.8457 27.638C36.5517 26.4277 36.9012 25.2104 36.9152 23.9931C36.9012 22.7758 36.5517 21.5585 35.8457 20.3481C32.4275 14.5037 30.3584 10.4507 30.3584 1.38329C30.3584 -0.00691605 30.3584 -0.00691605 28.3732 -0.00691605C26.388 0.0138332 26.388 0.0138333 26.388 1.39712Z" fill="white"/>
<path d="M8.54197e-07 1.35562C8.54197e-07 12.5049 0.908725 12.8991 3.57199 16.4334C4.62051 17.8236 5.53623 19.3107 6.43097 20.8046C7.06708 21.8697 7.39562 22.9418 7.4096 24.0069H12.9458C12.8689 22.4784 12.5544 21.0744 11.6946 19.7948C11.0305 18.8127 10.4363 17.796 9.7583 16.8277C7.35368 13.3971 6.19331 9.62767 6.36107 5.44323C6.41699 4.08069 6.36806 2.71816 6.36806 1.3487C6.36107 0.00691718 6.37505 0.0138335 3.19452 0.00691711C-0.111842 0.00691711 8.54197e-07 -0.0345814 8.54197e-07 1.35562Z" fill="white"/>
<path d="M17.6572 1.39712V3.81787C17.6572 9.10202 18.8525 12.7331 21.4389 16.5441C21.9981 17.3671 22.5294 18.2109 23.0676 19.0478C24.1301 20.7009 24.6823 22.3539 24.7033 24.0069H29.0093C29.0023 22.513 28.485 21.019 27.4225 19.5527C23.6338 14.3032 22.3546 8.94294 22.3546 1.40403C22.3546 0.0138329 22.3546 0.013833 20.0059 0.013833C17.6572 0.013833 17.6572 0.013833 17.6572 1.39712Z" fill="white"/>
<path d="M8.9055 1.39712C8.9055 2.00576 8.9055 3.89395 8.9055 4.77925C8.9055 9.77291 9.83519 12.6571 12.3307 16.1844C13.1905 17.4017 13.9804 18.6674 14.7563 19.947C15.5811 21.2957 16.0005 22.6513 16.0145 24.0069H20.8727C20.8587 22.098 20.1317 20.196 18.6778 18.2732C15.1198 13.5839 14.3229 8.00231 14.3229 1.40403C14.3229 0.0138329 14.3229 0.013833 11.6107 0.013833C8.9055 0.013833 8.9055 0.013833 8.9055 1.39712Z" fill="white"/>
</g>
<defs>
<clipPath id="clip0_73_2">
<rect width="104" height="48" fill="white" transform="translate(120)"/>
</clipPath>
<clipPath id="clip1_73_2">
<rect width="104" height="48" fill="white"/>
</clipPath>
</defs>
</svg>
