<svg width="320" height="191" viewBox="0 0 320 191" fill="none" xmlns="http://www.w3.org/2000/svg">
<g clip-path="url(#clip0_71_206)">
<path d="M281.272 111.677C272.082 91.7637 254.072 74.7658 232.328 71.9739C226.585 71.2349 220.554 71.5223 215.221 73.8215C208.205 76.8187 203.036 82.8131 197.826 88.3559C186.79 100.098 174.4 110.527 160.985 119.437C154.338 123.83 147.241 127.935 139.364 129.044C123.569 131.302 107.979 120.545 100.759 106.298C96.2462 97.3886 94.1949 86.96 90.5436 77.722C86.359 77.722 81.3538 77.722 76.0205 77.722C61.2103 77.8041 73 74 73 74C73 74 63.4667 58.9997 75.9385 66.0206C79.9179 68.2787 84.1026 70.2906 87.959 71.9739C85.7846 67.7861 83.0359 63.9677 79.2205 60.9294C71.7538 54.935 61.6205 53.2517 52.0615 53.7033C42.0102 54.1549 31.8769 56.8647 23.7128 62.736C11.3641 71.6455 5.16922 86.303 0.410248 101.043C-1.02565 105.477 1.02563 110.322 5.21025 112.416C8.24615 113.935 11.8154 113.73 14.6461 111.882C19.4872 108.762 25.3128 106.832 30.7692 109.952C43.282 117.014 57.641 121.695 57.641 121.695C57.641 121.695 5.21025 112.416 30.7692 160C-7 160 2.70768 190.918 0.410248 190.918H161.641C207.138 191.575 276.759 189.111 320 190.918C320 190.918 320 151.237 320 148.117C320 111.677 290.462 131.59 281.272 111.677Z" fill="#F2F2F2"/>
<path d="M320 191H0V190.179H319.672L320 191Z" fill="#CCCCCC"/>
<path d="M60.1743 68.0542L56.8513 70.5587L53.5282 66.4119C53.5282 66.4119 49.3846 58.9394 53.5282 53.9714C57.6718 49.0035 60.1333 67.233 60.1333 67.233L60.1743 68.0542Z" fill="#FFB9B9"/>
<path d="M72.6051 85.4627C72.6051 85.4627 55.2102 74.7056 54.3897 71.3799C53.5692 68.0543 58.5333 67.2331 60.1744 65.5908C61.8154 63.9485 70.1026 73.0633 70.1026 73.0633L72.6051 85.4627Z" fill="#FBB03B"/>
<path opacity="0.1" d="M72.6051 85.4627C72.6051 85.4627 55.2102 74.7056 54.3897 71.3799C53.5692 68.0543 58.5333 67.2331 60.1744 65.5908C61.8154 63.9485 70.1026 73.0633 70.1026 73.0633L72.6051 85.4627Z" fill="black"/>
<path d="M111.497 72.2009L110.677 79.6734C110.677 79.6734 108.174 92.1139 113.179 92.935C118.185 93.7562 117.323 78.8523 117.323 78.8523V72.242H111.497V72.2009Z" fill="#FFB9B9"/>
<path d="M99.1077 125.206C99.1077 125.206 106.574 137.647 114 140.11C121.426 142.574 147.969 170.78 147.969 170.78L153.754 163.308L142.144 148.404C140.503 140.932 127.251 133.5 124.749 132.679C122.246 131.858 114.82 120.239 114.82 120.239L99.1077 125.206Z" fill="#FFB9B9"/>
<path d="M63.4974 111.124L57.7128 114.449C61.8564 115.27 70.9641 128.532 71.7846 131.858C72.6051 135.183 82.5333 144.298 82.5333 144.298L83.3538 146.803L79.2102 150.95L70.1025 149.307L69.282 144.339C69.282 144.339 45.282 123.605 42.7795 113.669C40.2769 103.733 56.0307 101.229 56.0307 101.229L63.4974 111.124Z" fill="#FFB9B9"/>
<path d="M147.108 167.496C145.467 167.496 145.467 171.642 147.108 172.464C148.749 173.285 151.251 179.936 151.251 179.936C151.251 179.936 147.108 187.409 152.072 189.051C157.036 190.693 161.179 167.496 161.179 164.17C161.179 160.844 157.856 160.023 152.892 159.202C147.928 158.381 151.251 163.349 151.251 163.349C152.072 164.991 148.79 167.496 147.108 167.496Z" fill="#090814"/>
<path d="M70.9231 145.119C68.4205 143.477 68.4205 149.266 68.4205 152.592C68.4205 155.918 60.1333 160.064 60.1333 160.064C58.4923 165.853 70.882 163.39 70.882 163.39C70.882 163.39 82.4923 157.601 85.7743 155.096C89.0564 152.592 87.4154 149.307 84.1333 145.16C80.8513 141.014 80.8102 145.16 80.8102 145.16C80.8923 147.583 73.4256 146.762 70.9231 145.119Z" fill="#090814"/>
<path d="M73.4256 90.4307L52.7076 101.188C52.7076 101.188 56.8512 111.124 60.9948 115.271C65.1384 119.417 88.3179 111.124 88.3179 111.124C88.3179 111.124 98.2461 130.175 101.569 132.679C104.892 135.184 114 126.069 118.144 121.06C122.287 116.051 107.354 101.188 107.354 101.188C108.174 84.6006 96.6051 82.9583 96.6051 82.9583L73.4256 90.4307Z" fill="#090814"/>
<path d="M64.3179 35.7007C69.8011 35.7007 74.2461 31.2523 74.2461 25.7648C74.2461 20.2773 69.8011 15.8289 64.3179 15.8289C58.8347 15.8289 54.3897 20.2773 54.3897 25.7648C54.3897 31.2523 58.8347 35.7007 64.3179 35.7007Z" fill="#FFB9B9"/>
<path d="M61.8974 32.7857C66.041 35.2902 66.041 46.0473 66.041 46.0473C66.041 46.0473 79.2923 37.7537 77.6512 36.9325C76.0102 36.1114 70.1846 26.9966 70.1846 26.9966L61.8974 32.7857Z" fill="#FFB9B9"/>
<path d="M66.7794 43.1734C64.6051 46.9917 63.4564 51.2617 63.4564 55.6549V62.2241C63.4564 64.7286 66.7794 71.3389 68.4205 74.6645C70.0615 77.9902 70.0615 92.8941 70.0615 92.8941L79.1692 92.073C88.2769 91.2518 99.0256 85.4627 98.2051 83.7793C97.3846 82.096 98.2051 82.137 99.0256 78.8114C99.8461 75.4857 98.2051 77.1691 95.7025 74.6645C93.1999 72.16 94.882 73.8434 95.7025 65.5498C96.523 57.2561 90.7384 44.8157 88.2359 38.2054C85.7333 31.5951 72.523 35.7009 72.523 35.7009C71.7846 35.7419 66.7794 43.1734 66.7794 43.1734Z" fill="#FBB03B"/>
<path d="M79.2102 53.9715C79.2102 53.9715 104.072 56.476 104.892 56.476C105.713 56.476 109.036 73.0633 109.856 74.7056C110.677 76.3479 114.82 74.7056 118.144 74.7056C121.467 74.7056 119.785 58.1183 116.503 49.8657C113.22 41.6132 82.5333 39.1086 82.5333 39.1086C68.4615 40.7099 79.2102 53.9715 79.2102 53.9715Z" fill="#FBB03B"/>
<path d="M66.5333 28.0641L67.9282 27.7357L69.5282 24.9848C71.1282 22.2339 72.8512 31.8414 72.8512 31.8414C72.8512 31.8414 76.6666 32.991 75.0666 22.1518C73.4666 11.3126 63.8666 14.6383 58.8615 16.2806C53.8564 17.9229 50.9846 16.2806 50.164 17.8408C49.3435 19.401 54.7179 26.7092 57.9999 22.7266C61.282 18.744 63.9487 23.3425 63.9487 23.3425L66.5333 28.0641Z" fill="#090814"/>
<g clip-path="url(#clip1_71_206)">
<path d="M279.4 178C275.891 178 273.083 180.872 273.083 184.382C273.083 186.261 273.89 187.963 275.189 189.169C276.031 189.949 277.084 190.481 278.242 190.693C278.347 190.729 278.487 190.729 278.593 190.764C278.838 190.8 279.084 190.8 279.33 190.8L279.4 190.8C282.909 190.8 285.716 187.928 285.716 184.418C285.716 182.077 284.453 180.021 282.593 178.886C282.312 178.709 281.997 178.567 281.681 178.425C280.979 178.142 280.207 178 279.4 178Z" fill="#FBB03B"/>
<path d="M281.681 178.426C281.786 178.78 281.926 179.135 282.172 179.56C282.242 179.702 282.312 179.808 282.383 179.915C282.523 180.127 282.558 180.234 282.593 180.447C282.663 180.978 282.383 181.439 282.242 181.617C281.856 182.219 281.33 182.468 280.839 182.751C280.558 182.893 279.961 183.141 279.154 183.283C278.698 183.354 278.452 183.318 278.207 183.318C277.961 183.283 277.715 183.283 277.329 183.389C276.277 183.673 275.575 184.418 275.259 184.843C274.733 185.552 274.487 186.297 274.487 187.077C274.487 187.183 274.487 187.29 274.487 187.36C274.522 187.75 274.663 188.495 275.154 189.169C275.996 189.949 277.049 190.481 278.207 190.693C278.242 190.693 278.277 190.693 278.277 190.693C278.347 190.693 278.487 190.658 278.558 190.693C278.558 190.693 278.558 190.729 278.593 190.764C278.838 190.8 279.084 190.8 279.33 190.8C279.224 190.374 279.119 190.232 279.014 190.126C278.733 189.878 278.347 189.949 278.207 189.984C277.505 190.091 276.382 189.559 275.785 188.85C275.294 188.282 275.189 187.573 275.154 187.325C275.049 186.261 275.61 185.552 275.785 185.304C276.031 184.949 276.593 184.311 277.47 184.099C277.751 184.028 277.891 184.028 278.137 184.063C278.382 184.099 278.698 184.099 279.224 184.028C280.137 183.886 280.803 183.602 281.119 183.46C281.646 183.177 282.347 182.858 282.804 182.078C282.944 181.829 283.33 181.227 283.26 180.447C283.225 180.092 283.084 179.879 282.944 179.631C282.874 179.525 282.839 179.454 282.769 179.312C282.698 179.17 282.628 179.064 282.593 178.957C282.312 178.709 281.997 178.567 281.681 178.426Z" fill="#F2F2F2"/>
<path d="M272.839 142.609L277.519 147.732L267.875 150.119L269.258 144.153L260.43 115.238L264.932 114.15L272.839 142.609Z" fill="#090814"/>
<path d="M271.244 147.382C264.542 149.557 261.564 158.716 264.578 167.805C267.592 176.928 275.463 182.543 282.164 180.402C288.865 178.227 291.844 169.068 288.83 159.979C285.816 150.82 277.945 145.206 271.244 147.382ZM281.561 178.543C275.605 180.473 268.62 175.455 265.925 167.348C263.231 159.242 265.89 151.101 271.846 149.171C277.803 147.241 284.788 152.259 287.483 160.365C290.177 168.506 287.518 176.613 281.561 178.543Z" fill="#090814"/>
<path d="M265.925 167.348C268.62 175.455 275.605 180.473 281.561 178.543C287.518 176.613 290.177 168.506 287.483 160.365C284.788 152.259 277.803 147.241 271.846 149.171C265.89 151.101 263.231 159.242 265.925 167.348Z" fill="white"/>
<path d="M241.886 119.659L245.184 182.437L253.48 181.455L258.019 116.571L241.886 119.659Z" fill="#FFB6B6"/>
<path d="M254.579 178.648C254.579 178.648 259.189 190.579 253.161 191.281C247.134 191.982 229.76 195.141 229.76 190.579C229.76 186.017 238.624 184.262 238.624 184.262C238.624 184.262 242.879 177.595 244.652 178.297C246.424 178.999 247.843 182.859 251.034 181.806C254.225 180.753 254.579 178.648 254.579 178.648Z" fill="#090814"/>
<path d="M242.347 36.7039H232.065V49.6876H242.347V36.7039Z" fill="#FFB6B6"/>
<path d="M236.922 43.3712C243.443 43.3712 248.729 38.1395 248.729 31.6859C248.729 25.2322 243.443 20.0005 236.922 20.0005C230.401 20.0005 225.115 25.2322 225.115 31.6859C225.115 38.1395 230.401 43.3712 236.922 43.3712Z" fill="#FFB6B6"/>
<path d="M249.97 79.3396L251.388 67.7595L258.125 68.1104L259.543 81.796L265.11 107.132L266.741 114.045C267.734 115.273 268.407 116.677 268.726 118.221C269.577 122.046 268.265 125.555 265.819 126.081C263.373 126.607 260.678 123.941 259.862 120.116C259.508 118.607 259.508 117.028 259.898 115.484L258.373 110.255L249.97 79.3396Z" fill="#FFB6B6"/>
<path d="M231.356 45.8276H243.765L255.82 52.1441L251.566 77.4097L256.529 93.2008C256.529 93.2008 229.937 101.272 221.782 97.7626L225.328 77.4097L222.846 50.3895L231.356 45.8276Z" fill="#FBB03B"/>
<path d="M253.516 52.3194C253.516 52.3194 257.77 50.9158 258.479 53.3722C259.189 55.8285 260.961 70.5668 260.961 70.5668L250.325 70.9178L253.516 52.3194Z" fill="#FBB03B"/>
<path d="M195.439 98.4994C195.013 98.4994 194.588 98.4644 194.198 98.3942C192.567 98.1134 191.361 97.3414 190.865 96.1834C190.368 95.0254 190.617 93.6218 191.538 92.2883C192.46 90.9548 193.949 89.7968 195.758 89.0599C197.211 88.4283 198.807 88.1475 200.367 88.2177L215.046 80.638L216.109 69.7598L224.229 66.4612L225.364 81.2697C225.541 83.7611 224.123 86.0772 221.782 87.0246L203.239 94.9201C202.211 96.1132 200.899 97.0607 199.41 97.6573C198.098 98.1836 196.715 98.4994 195.439 98.4994Z" fill="#FFB6B6"/>
<path d="M225.86 50.214C225.86 50.214 218.769 47.7576 216.641 55.4777C214.514 63.1978 215.223 70.216 215.223 70.216L227.278 69.1633L225.86 50.214Z" fill="#FBB03B"/>
<path d="M187 79.1641C187 82.6732 189.872 85.4805 193.382 85.4805C195.261 85.4805 196.963 84.6734 198.169 83.375C198.949 82.5328 199.481 81.4801 199.693 80.3221C199.729 80.2168 199.729 80.0764 199.764 79.9712C199.8 79.7255 199.8 79.4799 199.8 79.2343V79.1641C199.8 75.655 196.928 72.8477 193.418 72.8477C191.077 72.8477 189.021 74.1109 187.886 75.9708C187.709 76.2515 187.567 76.5673 187.425 76.8831C187.142 77.585 187 78.357 187 79.1641Z" fill="#FBB03B"/>
<path d="M187.425 76.8832C187.78 76.7779 188.135 76.6376 188.56 76.3919C188.702 76.3218 188.808 76.2516 188.915 76.1814C189.127 76.041 189.234 76.0059 189.446 75.9708C189.978 75.9007 190.439 76.1814 190.617 76.3217C191.219 76.7077 191.467 77.2341 191.751 77.7254C191.893 78.0061 192.141 78.6027 192.283 79.4098C192.354 79.866 192.318 80.1116 192.318 80.3572C192.283 80.6029 192.283 80.8485 192.389 81.2345C192.673 82.2872 193.418 82.9891 193.843 83.3049C194.552 83.8313 195.297 84.0769 196.077 84.0769C196.183 84.0769 196.29 84.0769 196.36 84.0769C196.75 84.0418 197.495 83.9014 198.169 83.4102C198.949 82.568 199.481 81.5152 199.693 80.3572C199.693 80.3221 199.693 80.2871 199.693 80.2871C199.693 80.2169 199.658 80.0765 199.693 80.0063C199.693 80.0063 199.729 80.0063 199.764 79.9712C199.8 79.7256 199.8 79.48 199.8 79.2343C199.374 79.3396 199.232 79.4449 199.126 79.5501C198.878 79.8309 198.949 80.2169 198.984 80.3572C199.091 81.0591 198.559 82.182 197.85 82.7785C197.282 83.2698 196.573 83.3751 196.325 83.4102C195.261 83.5154 194.552 82.954 194.304 82.7785C193.949 82.5329 193.311 81.9714 193.098 81.0942C193.028 80.8134 193.028 80.6731 193.063 80.4274C193.098 80.1818 193.098 79.866 193.028 79.3396C192.886 78.4272 192.602 77.7605 192.46 77.4447C192.177 76.9183 191.857 76.2165 191.077 75.7603C190.829 75.6199 190.227 75.2339 189.446 75.3041C189.092 75.3392 188.879 75.4796 188.631 75.6199C188.525 75.6901 188.454 75.7252 188.312 75.7954C188.17 75.8656 188.064 75.9357 187.957 75.9708C187.709 76.2516 187.567 76.5674 187.425 76.8832Z" fill="#F2F2F2"/>
<path d="M248.339 31.6858L250.396 37.0196L255.359 45.8275C260.501 54.9863 262.77 65.4435 261.812 75.8656L248.658 75.234L247.134 70.9528C243.269 60.2149 241.886 48.8103 242.347 37.4056C242.56 31.9665 240.184 27.8257 234.901 25.0886L248.339 31.6858Z" fill="#090814"/>
<path d="M249.793 35.6511L244.12 30.3874C244.12 30.3874 236.674 27.931 233.483 25.8256C231.462 24.4921 228.448 25.9659 226.498 27.2292C225.257 28.0363 223.662 28.1065 222.35 27.4047C221.392 26.9134 221.002 25.7905 221.392 24.8079C222.846 21.1584 226.746 19.053 230.646 19.8601L233.448 17.8949C236.319 15.8597 240.078 15.4386 243.34 16.8422L245.183 17.6142C247.027 18.3862 248.623 19.7197 249.722 21.4041C251.14 23.5797 251.672 26.2116 251.176 28.7732L249.793 35.6511Z" fill="#FBB03B"/>
<path d="M218.095 120.572L214.798 183.35L223.165 183.21L234.476 119.133L218.095 120.572Z" fill="#FFB6B6"/>
<path d="M255.395 90.5337C255.395 90.5337 262.486 101.412 261.777 116.852C261.777 116.852 241.922 129.134 217.102 121.765C217.102 121.765 219.584 100.008 222.775 96.4992L255.395 90.5337Z" fill="#090814"/>
<path d="M224.796 178.648C224.796 178.648 229.406 190.579 223.378 191.281C217.35 191.982 199.977 195.141 199.977 190.579C199.977 186.017 208.841 184.262 208.841 184.262C208.841 184.262 213.096 177.595 214.868 178.297C216.641 178.999 218.06 182.859 221.251 181.806C224.442 180.753 224.796 178.648 224.796 178.648Z" fill="#090814"/>
</g>
</g>
<defs>
<clipPath id="clip0_71_206">
<rect width="320" height="191" fill="white"/>
</clipPath>
<clipPath id="clip1_71_206">
<rect width="103" height="177" fill="white" transform="translate(187 16)"/>
</clipPath>
</defs>
</svg>
