<svg width="178" height="160" viewBox="0 0 178 160" fill="none" xmlns="http://www.w3.org/2000/svg">
<g clip-path="url(#clip0_9_11)">
<path d="M52.8824 29.3802C51.132 30.9097 49.6034 30.589 48.0995 28.6155C45.6835 25.4332 43.44 24.8165 39.668 26.4446C35.5508 28.2208 31.6309 30.4656 27.5137 32.2664C23.1007 34.1906 18.6383 36.2134 14.0281 37.5455C7.32228 39.4943 3.9447 36.3861 4.46243 29.3309C4.56104 28.0481 4.68432 26.7407 4.80758 25.4579C5.20204 21.9303 4.26521 18.8221 2.19428 15.9359C-1.47912 10.8788 -0.542274 6.19181 5.22669 3.67562C12.3763 0.542717 19.9943 -0.666039 27.8095 0.345374C32.3951 0.937415 33.9483 3.20692 33.6771 7.86927C33.3319 13.6417 35.8959 15.9605 41.1965 13.7651C46.0286 11.7916 50.3924 8.73267 55.0519 6.29049C56.2353 5.67377 57.8131 5.22974 59.0458 5.45176C61.3879 5.89579 63.73 6.68517 65.8996 7.74592C69.5483 9.52205 70.0907 12.3589 67.9705 15.9112C62.9165 20.4255 57.9364 24.9645 52.8824 29.3802ZM119.62 122.035C124.206 125.267 127.509 123.861 128.175 118.261C128.791 112.982 128.274 107.579 128.397 102.251C128.421 101.067 128.693 99.5621 129.457 98.7974C131.429 96.7746 133.549 94.8011 135.916 93.321C138.702 91.5942 141.513 92.4576 142.425 95.5658C144.397 102.276 145.95 109.109 147.528 115.917C147.997 117.916 147.035 119.075 144.792 119.396C140.354 120.037 138.801 121.69 138.406 126.475C137.938 132.075 137.962 137.724 137.42 143.299C137.026 147.32 136.36 151.366 135.201 155.239C133.845 159.827 130.418 161.11 126.005 159.038C124.058 158.125 122.283 156.842 120.508 155.609C117.672 153.636 114.591 152.969 111.164 153.389C105.074 154.154 101.845 151.218 101.82 145.026C101.795 140.537 105.913 128.844 109.068 124.403C111.953 120.555 115.281 118.952 119.62 122.035ZM69.6716 92.951C71.0275 91.7422 72.9505 91.0021 74.7503 90.5088C77.191 89.8427 79.04 91.0515 80.5192 93.0496C84.9076 98.8961 88.4577 98.6001 91.5888 91.8655C93.5117 87.7459 94.991 83.3796 96.3962 79.0379C96.9386 77.3851 97.6536 76.2504 99.2314 75.683C101.672 74.8196 104.064 73.7095 106.578 73.2655C110.079 72.6241 112.421 74.4989 112.101 77.9772C111.46 84.8597 110.35 91.6929 109.339 98.526C109.019 100.648 107.712 101.314 105.543 100.796C101.376 99.8088 99.5766 100.376 97.555 104.126C95.0403 108.739 93.1666 113.697 90.7752 118.409C88.8522 122.183 86.8306 125.933 84.4145 129.386C80.6918 134.69 76.1309 134.591 72.2109 129.362C71.2248 128.054 70.3865 126.623 69.4497 125.267C67.65 122.701 65.2832 120.95 62.2261 120.111C55.0026 118.113 53.1043 112.858 57.2461 106.469C57.8624 105.532 58.5527 104.644 59.2184 103.731M77.3142 70.626C75.8843 72.4268 74.4791 73.0681 72.3095 71.366C69.1045 68.8498 66.5652 68.9978 63.1876 71.8594C59.2923 75.1403 55.7422 78.8159 51.8223 82.0721C48.5187 84.835 45.0918 87.5239 41.3937 89.6947C36.0685 92.8276 32.2965 90.9775 30.7433 84.9337C30.4475 83.7743 30.2009 82.5655 30.0284 81.3814C29.4613 77.5331 27.9081 74.2522 24.6785 71.9581C19.1561 68.0604 19.7724 62.584 24.925 58.6124C30.5954 54.2461 37.03 51.2118 44.1303 49.9291C49.2829 48.9917 51.5018 50.6198 52.7098 55.6522C53.9918 61.0792 57.0982 62.5347 61.5112 59.0564C65.6777 55.7508 69.1045 51.5572 72.9752 47.8816C73.8874 47.0182 75.2187 46.2288 76.402 46.1548C78.7935 45.9821 81.2588 46.0561 83.6009 46.5248C87.9647 47.4129 89.1973 50.2004 87.2004 54.2214C86.0417 56.5402 84.7597 58.8097 83.453 61.0546C81.9738 63.5954 80.396 66.0869 79.1633 68.0851C78.325 69.2445 77.8566 69.9599 77.3142 70.626ZM159.165 129.386C165.082 130.842 166.931 129.164 165.797 123.145C165.205 120.012 164.071 117.003 163.06 113.969C162.148 111.255 164.958 105.68 167.744 105.285C168.656 105.162 170.16 105.729 170.604 106.445C173.217 110.614 175.658 114.881 177.951 119.223C178.247 119.766 177.581 121.369 176.915 121.788C173.858 123.762 173.069 125.069 173.809 128.893C174.672 133.309 175.855 137.65 176.669 142.091C177.113 144.533 177.334 147.074 177.211 149.565C177.088 152.451 175.387 153.734 172.502 153.438C171.245 153.315 169.963 152.92 168.755 152.476C165.698 151.317 162.764 151.243 159.707 152.599C156.675 153.932 154.16 153.068 153.174 150.009C151.128 143.571 152.237 137.231 154.554 131.064C155.787 129.386 157.192 128.893 159.165 129.386Z" fill="#1B1464"/>
<path d="M67.921 15.9359C62.9163 20.4255 57.9363 24.9399 52.8823 29.3802C51.1318 30.9097 49.6033 30.589 48.0994 28.6155C45.6834 25.4332 43.4399 24.8165 39.6679 26.4446C35.5507 28.2208 31.6307 30.4656 27.5135 32.2664C23.1005 34.1906 18.6382 36.2134 14.028 37.5455C7.32215 39.4943 3.94457 36.3861 4.4623 29.3309C4.56092 28.0481 4.6842 26.7407 4.80746 25.4579C5.20192 21.9303 4.26508 18.8221 2.19417 15.9359C-1.47923 10.8788 -0.542398 6.1918 5.22658 3.67561C12.3762 0.542712 19.9942 -0.666048 27.8094 0.345362C32.395 0.937406 33.9482 3.20691 33.677 7.86926C33.3318 13.6417 35.8958 15.9605 41.1964 13.765C46.0285 11.7916 50.3922 8.73266 55.0518 6.29048C56.2352 5.67377 57.813 5.22973 59.0457 5.45174C61.3878 5.89578 63.7299 6.68517 65.8994 7.74591C69.4989 9.54671 70.0413 12.4083 67.921 15.9359Z" fill="#1B1464"/>
<path d="M109.093 124.428C111.953 120.555 115.281 118.952 119.645 122.035C124.23 125.267 127.534 123.861 128.199 118.261C128.816 112.982 128.298 107.579 128.421 102.251C128.446 101.067 128.717 99.5621 129.481 98.7974C131.454 96.7746 133.574 94.8011 135.941 93.321C138.727 91.5942 141.537 92.4576 142.449 95.5658C144.422 102.276 145.975 109.109 147.553 115.917C148.021 117.916 147.06 119.075 144.816 119.396C140.378 120.037 138.825 121.69 138.431 126.475C137.962 132.075 137.987 137.724 137.445 143.299C137.05 147.32 136.385 151.366 135.226 155.239C133.845 159.827 130.418 161.11 126.005 159.038C124.058 158.125 122.283 156.842 120.507 155.609C117.672 153.636 114.591 152.969 111.164 153.389C105.074 154.154 101.845 151.218 101.82 145.026C101.82 140.561 105.937 128.844 109.093 124.428Z" fill="#1B1464"/>
<path d="M69.6715 92.951C71.0274 91.7422 72.9504 91.0022 74.7501 90.5088C77.1909 89.8427 79.0399 91.0515 80.5191 93.0496C84.9075 98.8961 88.4576 98.6001 91.5886 91.8656C93.5116 87.7459 94.9909 83.3796 96.3961 79.0379C96.9385 77.3851 97.6535 76.2504 99.2313 75.683C101.672 74.8196 104.063 73.7095 106.578 73.2655C110.079 72.6241 112.421 74.4989 112.101 77.9772C111.46 84.8597 110.35 91.6929 109.339 98.5261C109.019 100.648 107.712 101.314 105.543 100.796C101.376 99.8088 99.5765 100.376 97.5548 104.126C95.0402 108.739 93.1665 113.697 90.7751 118.409C88.8521 122.183 86.8305 125.933 84.4144 129.386C80.6917 134.69 76.1307 134.591 72.2108 129.362C71.2246 128.054 70.3864 126.623 69.4496 125.267C67.6499 122.701 65.2831 120.95 62.226 120.111C55.0025 118.113 53.1042 112.858 57.246 106.469C57.3446 106.321 57.4432 106.149 57.5665 106.001C58.528 104.595 59.6127 103.312 60.7961 102.078L69.6715 92.951Z" fill="#1B1464"/>
<path d="M79.1631 68.0604C78.3249 69.2445 77.8318 69.9599 77.2895 70.6506C75.8595 72.4514 74.4543 73.0928 72.2848 71.3907C69.0798 68.8745 66.5404 69.0225 63.1629 71.8841C59.2676 75.165 55.7174 78.8406 51.7975 82.0968C48.4939 84.8597 45.067 87.5486 41.369 89.7194C36.0438 92.8523 32.2717 91.0022 30.7185 84.9584C30.4227 83.799 30.1762 82.5902 30.0036 81.4061C29.4366 77.5578 27.8834 74.2769 24.6537 71.9828C19.1313 68.0851 19.7476 62.6087 24.9003 58.6371C30.5706 54.2708 37.0053 51.2365 44.1055 49.9538C49.2582 49.0164 51.477 50.6445 52.685 55.6769C53.967 61.1039 57.0734 62.5594 61.4864 59.0811C65.6529 55.7755 69.0798 51.5819 72.9504 47.9063C73.8626 47.0429 75.1939 46.2535 76.3773 46.1795C78.7687 46.0068 81.2341 46.0808 83.5762 46.5495C87.9399 47.4376 89.1726 50.2251 87.1756 54.2461C86.0169 56.5649 84.7349 58.8344 83.4282 61.0793C81.9737 63.5708 80.3958 66.0376 79.1631 68.0604Z" fill="#1B1464"/>
<path d="M154.554 131.039C155.762 129.386 157.192 128.893 159.14 129.386C165.057 130.842 166.906 129.164 165.772 123.145C165.18 120.012 164.046 117.003 163.035 113.969C162.123 111.255 164.934 105.68 167.719 105.285C168.632 105.162 170.135 105.729 170.579 106.445C173.193 110.614 175.633 114.881 177.926 119.223C178.222 119.766 177.556 121.369 176.891 121.788C173.834 123.762 173.045 125.069 173.784 128.893C174.647 133.309 175.83 137.65 176.644 142.091C177.088 144.533 177.31 147.074 177.186 149.565C177.063 152.451 175.362 153.734 172.478 153.438C171.22 153.315 169.938 152.92 168.73 152.476C165.673 151.317 162.739 151.243 159.682 152.599C156.65 153.932 154.135 153.068 153.149 150.009C151.152 143.546 152.261 137.206 154.554 131.039Z" fill="#1B1464"/>
</g>
<defs>
<clipPath id="clip0_9_11">
<rect width="160" height="178" fill="white" transform="matrix(-4.37114e-08 -1 -1 4.37114e-08 178 160)"/>
</clipPath>
</defs>
</svg>
