<svg width="160" height="178" viewBox="0 0 160 178" fill="none" xmlns="http://www.w3.org/2000/svg">
<g clip-path="url(#clip0_9_3)">
<path d="M29.3802 125.118C30.9096 126.868 30.589 128.397 28.6155 129.9C25.4332 132.317 24.8165 134.56 26.4446 138.332C28.2208 142.449 30.4656 146.369 32.2664 150.486C34.1906 154.899 36.2134 159.362 37.5455 163.972C39.4943 170.678 36.386 174.055 29.3309 173.538C28.0481 173.439 26.7406 173.316 25.4579 173.192C21.9303 172.798 18.8221 173.735 15.9359 175.806C10.8788 179.479 6.19179 178.542 3.6756 172.773C0.542695 165.624 -0.66606 158.006 0.345354 150.19C0.937396 145.605 3.2069 144.052 7.86925 144.323C13.6417 144.668 15.9605 142.104 13.765 136.803C11.7915 131.971 8.73265 127.608 6.29047 122.948C5.67376 121.765 5.22973 120.187 5.45174 118.954C5.89577 116.612 6.68516 114.27 7.7459 112.1C9.52204 108.452 12.3589 107.909 15.9112 110.03C20.4255 115.084 24.9645 120.064 29.3802 125.118ZM122.035 58.3799C125.267 53.7943 123.861 50.4907 118.261 49.8251C112.982 49.2087 107.579 49.7265 102.251 49.6032C101.067 49.5785 99.5621 49.3074 98.7974 48.5431C96.7746 46.5708 94.8011 44.4506 93.321 42.0838C91.5942 39.2979 92.4576 36.4874 95.5658 35.5752C102.276 33.6029 109.109 32.0497 115.917 30.4719C117.915 30.0035 119.075 30.965 119.396 33.2085C120.037 37.6461 121.69 39.1993 126.475 39.5938C132.075 40.0622 137.724 40.0376 143.299 40.5799C147.32 40.9744 151.366 41.64 155.239 42.7988C159.827 44.1547 161.11 47.5816 159.038 51.9946C158.125 53.9423 156.842 55.7173 155.609 57.4924C153.636 60.3276 152.969 63.4093 153.389 66.8362C154.154 72.9256 151.218 76.1553 145.026 76.1799C140.537 76.2046 128.844 72.0874 124.403 68.9317C120.555 66.0472 118.952 62.719 122.035 58.3799ZM92.951 108.328C91.7422 106.972 91.0021 105.049 90.5088 103.25C89.8427 100.809 91.0515 98.96 93.0496 97.4808C98.8961 93.0924 98.6 89.5423 91.8655 86.4112C87.7459 84.4882 83.3796 83.009 79.0379 81.6038C77.3851 81.0614 76.2504 80.3464 75.683 78.7686C74.8196 76.3279 73.7095 73.9364 73.2655 71.4218C72.6241 67.9209 74.4989 65.5788 77.9772 65.8993C84.8597 66.5403 91.6929 67.6497 98.526 68.6605C100.648 68.981 101.314 70.2877 100.796 72.4572C99.8088 76.6237 100.376 78.4234 104.126 80.445C108.739 82.9597 113.697 84.8334 118.409 87.2248C122.183 89.1478 125.933 91.1694 129.386 93.5855C134.69 97.3082 134.591 101.869 129.362 105.789C128.054 106.775 126.623 107.613 125.267 108.55C122.701 110.35 120.95 112.717 120.111 115.774C118.113 122.997 112.858 124.896 106.469 120.754C105.532 120.138 104.644 119.447 103.731 118.782M70.6259 100.686C72.4267 102.116 73.0681 103.521 71.366 105.69C68.8498 108.895 68.9978 111.435 71.8594 114.812C75.1403 118.708 78.8159 122.258 82.0721 126.178C84.835 129.481 87.5239 132.908 89.6947 136.606C92.8276 141.931 90.9775 145.703 84.9337 147.257C83.7743 147.553 82.5655 147.799 81.3814 147.972C77.5331 148.539 74.2522 150.092 71.958 153.321C68.0604 158.844 62.584 158.228 58.6124 153.075C54.2461 147.405 51.2118 140.97 49.9291 133.87C48.9916 128.717 50.6198 126.498 55.6522 125.29C61.0792 124.008 62.5347 120.902 59.0564 116.489C55.7508 112.322 51.5572 108.895 47.8816 105.025C47.0182 104.113 46.2288 102.781 46.1548 101.598C45.9821 99.2065 46.0561 96.7411 46.5248 94.399C47.4129 90.0353 50.2004 88.8026 54.2214 90.7996C56.5402 91.9583 58.8097 93.2403 61.0546 94.547C63.5954 96.0262 66.0869 97.604 68.0851 98.8367C69.2445 99.6749 69.9599 100.143 70.6259 100.686ZM129.386 18.8353C130.842 12.9184 129.164 11.0694 123.145 12.2035C120.012 12.7952 117.003 13.9292 113.969 14.94C111.255 15.8522 105.68 13.0417 105.285 10.2558C105.162 9.34364 105.729 7.83976 106.445 7.39599C110.614 4.7827 114.881 2.34198 119.223 0.0491783C119.766 -0.246667 121.369 0.418985 121.788 1.08464C123.762 4.1417 125.069 4.93062 128.893 4.19101C133.309 3.32813 137.65 2.14475 142.091 1.33117C144.533 0.887408 147.074 0.665524 149.565 0.788793C152.451 0.912062 153.734 2.61317 153.438 5.49766C153.315 6.755 152.92 8.03699 152.476 9.24503C151.317 12.3021 151.243 15.2359 152.599 18.2929C153.932 21.3254 153.068 23.84 150.009 24.8262C143.571 26.8725 137.231 25.763 131.064 23.4456C129.386 22.2129 128.893 20.8076 129.386 18.8353Z" fill="#1B1464"/>
<path d="M15.9359 110.079C20.4255 115.084 24.9399 120.064 29.3802 125.118C30.9097 126.868 30.589 128.397 28.6155 129.901C25.4332 132.317 24.8165 134.56 26.4446 138.332C28.2208 142.449 30.4656 146.369 32.2664 150.486C34.1906 154.899 36.2134 159.362 37.5455 163.972C39.4943 170.678 36.3861 174.055 29.3309 173.538C28.0481 173.439 26.7407 173.316 25.4579 173.193C21.9303 172.798 18.8221 173.735 15.9359 175.806C10.8788 179.479 6.19179 178.542 3.6756 172.773C0.542704 165.624 -0.666054 158.006 0.345356 150.191C0.937401 145.605 3.2069 144.052 7.86925 144.323C13.6417 144.668 15.9605 142.104 13.765 136.804C11.7916 131.971 8.73266 127.608 6.29048 122.948C5.67377 121.765 5.22973 120.187 5.45174 118.954C5.89578 116.612 6.68516 114.27 7.74591 112.101C9.54671 108.501 12.4083 107.959 15.9359 110.079Z" fill="#1B1464"/>
<path d="M124.428 68.9072C120.555 66.0473 118.952 62.7191 122.035 58.3554C125.267 53.7698 123.861 50.4662 118.261 49.8005C112.982 49.1842 107.579 49.7019 102.251 49.5786C101.067 49.554 99.5621 49.2828 98.7974 48.5185C96.7746 46.5462 94.8011 44.426 93.321 42.0593C91.5942 39.2734 92.4576 36.4629 95.5658 35.5507C102.276 33.5784 109.109 32.0252 115.917 30.4473C117.916 29.9789 119.075 30.9404 119.396 33.1839C120.037 37.6216 121.69 39.1748 126.475 39.5692C132.075 40.0377 137.724 40.013 143.299 40.5554C147.32 40.9498 151.366 41.6155 155.239 42.7742C159.827 44.1548 161.11 47.5817 159.038 51.9947C158.125 53.9424 156.842 55.7174 155.609 57.4925C153.636 60.3277 152.969 63.4094 153.389 66.8363C154.154 72.9257 151.218 76.1554 145.026 76.18C140.561 76.18 128.844 72.0629 124.428 68.9072Z" fill="#1B1464"/>
<path d="M92.951 108.329C91.7422 106.973 91.0022 105.05 90.5088 103.25C89.8427 100.809 91.0515 98.9601 93.0496 97.4809C98.8961 93.0925 98.6001 89.5424 91.8655 86.4114C87.7459 84.4884 83.3796 83.0091 79.0379 81.6039C77.3851 81.0615 76.2504 80.3465 75.683 78.7687C74.8196 76.328 73.7095 73.9366 73.2655 71.4219C72.6241 67.9211 74.4989 65.5789 77.9772 65.8994C84.8597 66.5404 91.6929 67.6499 98.5261 68.6607C100.648 68.9812 101.314 70.2878 100.796 72.4573C99.8088 76.6238 100.376 78.4235 104.126 80.4452C108.739 82.9598 113.697 84.8335 118.409 87.2249C122.183 89.1479 125.933 91.1695 129.386 93.5856C134.69 97.3083 134.591 101.869 129.362 105.789C128.054 106.775 126.623 107.614 125.267 108.55C122.701 110.35 120.95 112.717 120.111 115.774C118.113 122.998 112.858 124.896 106.469 120.754C106.321 120.655 106.149 120.557 106.001 120.434C104.595 119.472 103.312 118.387 102.078 117.204L92.951 108.329Z" fill="#1B1464"/>
<path d="M68.0604 98.8369C69.2445 99.6751 69.9599 100.168 70.6506 100.711C72.4514 102.14 73.0928 103.546 71.3906 105.715C68.8744 108.92 69.0225 111.46 71.884 114.837C75.1649 118.732 78.8405 122.283 82.0968 126.203C84.8597 129.506 87.5485 132.933 89.7193 136.631C92.8522 141.956 91.0021 145.728 84.9583 147.281C83.7989 147.577 82.5901 147.824 81.4061 147.996C77.5578 148.563 74.2769 150.117 71.9827 153.346C68.0851 158.869 62.6086 158.252 58.637 153.1C54.2707 147.429 51.2365 140.995 49.9537 133.894C49.0163 128.742 50.6444 126.523 55.6768 125.315C61.1039 124.033 62.5593 120.927 59.081 116.514C55.7755 112.347 51.5818 108.92 47.9062 105.05C47.0428 104.137 46.2534 102.806 46.1794 101.623C46.0067 99.2313 46.0807 96.7659 46.5494 94.4238C47.4375 90.0601 50.225 88.8274 54.246 90.8244C56.5649 91.9831 58.8344 93.2651 61.0792 94.5718C63.5707 96.0263 66.0376 97.6042 68.0604 98.8369Z" fill="#1B1464"/>
<path d="M131.039 23.4457C129.386 22.2377 128.893 20.8078 129.386 18.8601C130.842 12.9432 129.164 11.0942 123.145 12.2283C120.012 12.8199 117.003 13.954 113.969 14.9648C111.255 15.877 105.68 13.0665 105.285 10.2806C105.162 9.36842 105.729 7.86454 106.445 7.42077C110.614 4.80748 114.881 2.36676 119.223 0.0739591C119.766 -0.221886 121.369 0.443765 121.788 1.10942C123.762 4.16648 125.069 4.9554 128.893 4.21579C133.309 3.35291 137.65 2.16953 142.091 1.35596C144.533 0.912188 147.074 0.690305 149.565 0.813574C152.451 0.936843 153.734 2.63795 153.438 5.52244C153.315 6.77978 152.92 8.06177 152.476 9.26981C151.317 12.3269 151.243 15.2607 152.599 18.3177C153.931 21.3501 153.068 23.8648 150.009 24.851C143.546 26.8479 137.206 25.7385 131.039 23.4457Z" fill="#1B1464"/>
</g>
<defs>
<clipPath id="clip0_9_3">
<rect width="160" height="178" fill="white" transform="matrix(-1 -8.74228e-08 -8.74228e-08 1 160 0)"/>
</clipPath>
</defs>
</svg>
