<svg width="60" height="60" viewBox="0 0 60 60" fill="none" xmlns="http://www.w3.org/2000/svg">
<path d="M7.91013 28.3742L10 28.8967L11.1422 40.2512C11.7875 46.667 12.1102 49.8747 14.2525 51.8122C16.3948 53.75 19.6188 53.75 26.0667 53.75H33.9333C40.3813 53.75 43.6052 53.75 45.7475 51.8122C47.8897 49.8747 48.2125 46.667 48.8578 40.2512L50 28.8967L52.09 28.3742C53.8003 27.9467 55 26.41 55 24.647C55 23.3934 54.3882 22.2185 53.3612 21.4996L32.8673 7.15384C31.1458 5.94872 28.8542 5.94872 27.1327 7.15384L6.63872 21.4996C5.61167 22.2185 5 23.3934 5 24.647C5 26.41 6.19983 27.9467 7.91013 28.3742Z" stroke="#1B1464" stroke-width="6" stroke-linecap="round" stroke-linejoin="round"/>
<path d="M37.5 40C35.5013 41.556 32.8755 42.5 30 42.5C27.1245 42.5 24.4988 41.556 22.5 40" stroke="#1B1464" stroke-width="6" stroke-linecap="round"/>
</svg>
