<svg width="64" height="64" viewBox="0 0 64 64" fill="none" xmlns="http://www.w3.org/2000/svg">
<path d="M32 58.6666C46.7274 58.6666 58.6666 46.7274 58.6666 31.9999C58.6666 17.2723 46.7274 5.33325 32 5.33325C17.2724 5.33325 5.33331 17.2723 5.33331 31.9999C5.33331 35.677 6.0775 39.1802 7.4235 42.3671C8.16739 44.1282 8.53934 45.009 8.58539 45.6746C8.63145 46.3402 8.43555 47.0722 8.04377 48.5365L5.33331 58.6666L15.4634 55.9562C16.9277 55.5645 17.6598 55.3685 18.3254 55.4146C18.9909 55.4605 19.8716 55.8324 21.6329 56.5764C24.8198 57.9223 28.3229 58.6666 32 58.6666Z" stroke="white" stroke-width="3" stroke-linejoin="round"/>
<path d="M22.9018 33.0062L25.2243 30.1217C26.2031 28.9059 27.4131 27.7742 27.508 26.1554C27.5318 25.7466 27.2443 23.9109 26.6688 20.2397C26.4427 18.7969 25.0956 18.6667 23.9289 18.6667C22.4084 18.6667 21.6482 18.6667 20.8932 19.0116C19.9391 19.4474 18.9595 20.6729 18.7445 21.6996C18.5744 22.512 18.7008 23.0717 18.9536 24.1913C20.0273 28.9462 22.5462 33.6422 26.452 37.5481C30.3579 41.4539 35.0539 43.9729 39.8088 45.0465C40.9283 45.2993 41.488 45.4257 42.3006 45.2555C43.3272 45.0406 44.5526 44.0612 44.9886 43.1068C45.3334 42.3518 45.3334 41.5918 45.3334 40.0713C45.3334 38.9043 45.2032 37.5574 43.7603 37.3313C40.0891 36.7558 38.2536 36.4683 37.8446 36.4921C36.2259 36.587 35.0942 37.7969 33.8784 38.7758L30.9939 41.0982" stroke="white" stroke-width="3"/>
</svg>
